<svg xmlns="http://www.w3.org/2000/svg" width="1500" height="998" viewBox="0 0 1500 998"><defs>
    <filter id="sh" x="-25%" y="-25%" width="150%" height="150%"><feDropShadow dx="0" dy="8" stdDeviation="18" flood-color="#16233b" flood-opacity="0.06"/></filter>
    <filter id="glow" x="-40%" y="-40%" width="180%" height="180%"><feDropShadow dx="0" dy="4" stdDeviation="9" flood-color="#1C6B6B" flood-opacity="0.45"/></filter>
    <linearGradient id="sb" x1="0" y1="0" x2="0" y2="1"><stop offset="0" stop-color="#14281f"/><stop offset="1" stop-color="#0c1b15"/></linearGradient>
    <linearGradient id="btn" x1="0" y1="0" x2="0" y2="1"><stop offset="0" stop-color="#20787a"/><stop offset="1" stop-color="#155150"/></linearGradient>
  </defs><rect width="1500" height="998" fill="#f4f5f3"/><rect x="0" y="0" width="1500" height="48" rx="0" fill="#edece6"/><circle cx="28" cy="24" r="6.5" fill="#e06c5b"/><circle cx="50" cy="24" r="6.5" fill="#e3b341"/><circle cx="72" cy="24" r="6.5" fill="#4caf6d"/><rect x="118" y="13" width="620" height="24" rx="12" fill="#ffffff"/><circle cx="0" cy="0" r="8" fill="none" stroke="transparent" stroke-width="1.9"/><path d="M0 -4 v4 l3 2" fill="none" stroke="transparent" stroke-width="1.9" stroke-linecap="round"/><circle cx="140" cy="25" r="5" fill="none" stroke="#9aa3ad" stroke-width="1.5"/><path d="M143 28 l3 3" stroke="#9aa3ad" stroke-width="1.5" stroke-linecap="round"/><text x="158" y="29" font-family="Inter, -apple-system, 'Segoe UI', Arial, sans-serif" font-size="12.5" font-weight="400" fill="#6b7280" text-anchor="start" letter-spacing="0">admin.kupkopph.com/dashboard</text><g transform="translate(0,48)"><rect x="0" y="0" width="264" height="950" fill="url(#sb)"/><rect x="24" y="26" width="34" height="34" rx="11" fill="url(#btn)"/><text x="41" y="49" font-family="Inter, -apple-system, 'Segoe UI', Arial, sans-serif" font-size="18" font-weight="800" fill="#ffffff" text-anchor="middle" letter-spacing="0">K</text><text x="70" y="42" font-family="Inter, -apple-system, 'Segoe UI', Arial, sans-serif" font-size="18" font-weight="800" fill="#ffffff" text-anchor="start" letter-spacing="0.2">Kupkop</text><text x="70" y="60" font-family="Inter, -apple-system, 'Segoe UI', Arial, sans-serif" font-size="11.5" font-weight="400" fill="#7f9a97" text-anchor="start" letter-spacing="0.6">Platform Ops</text><text x="28" y="104" font-family="Inter, -apple-system, 'Segoe UI', Arial, sans-serif" font-size="11" font-weight="700" fill="#5c7370" text-anchor="start" letter-spacing="1.4">MENU</text><rect x="16" y="115" width="232" height="46" rx="13" fill="url(#btn)" filter="url(#glow)"/><g fill="none" stroke="#ffffff" stroke-width="2.1"><rect x="34" y="129" width="7" height="7" rx="1.6"/><rect x="43" y="129" width="7" height="7" rx="1.6"/><rect x="34" y="138" width="7" height="7" rx="1.6"/><rect x="43" y="138" width="7" height="7" rx="1.6"/></g><text x="66" y="143" font-family="Inter, -apple-system, 'Segoe UI', Arial, sans-serif" font-size="14.5" font-weight="700" fill="#ffffff" text-anchor="start" letter-spacing="0">Dashboard</text><path d="M42 182 l8 3 v5 c0 5 -4 7 -8 8 c-4 -1 -8 -3 -8 -8 v-5 z" fill="none" stroke="#a7c0bc" stroke-width="1.9"/><polyline points="36,192 41,197 49,186" fill="none" stroke="#a7c0bc" stroke-width="1.9" stroke-linecap="round" stroke-linejoin="round"/><text x="66" y="197" font-family="Inter, -apple-system, 'Segoe UI', Arial, sans-serif" font-size="14.5" font-weight="500" fill="#a7c0bc" text-anchor="start" letter-spacing="0">Verifications</text><rect x="206" y="179" width="25.4" height="26" rx="13" fill="#1C6B6B"/><text x="218.7" y="196.5" font-family="Inter, -apple-system, 'Segoe UI', Arial, sans-serif" font-size="12.5" font-weight="700" fill="#ffffff" text-anchor="middle" letter-spacing="0">7</text><path d="M35 236 v18 M35 236 h13 l-3 4 l3 4 h-13" fill="none" stroke="#a7c0bc" stroke-width="1.9" stroke-linejoin="round" stroke-linecap="round"/><text x="66" y="251" font-family="Inter, -apple-system, 'Segoe UI', Arial, sans-serif" font-size="14.5" font-weight="500" fill="#a7c0bc" text-anchor="start" letter-spacing="0">Moderation</text><rect x="206" y="233" width="25.4" height="26" rx="13" fill="#1C6B6B"/><text x="218.7" y="250.5" font-family="Inter, -apple-system, 'Segoe UI', Arial, sans-serif" font-size="12.5" font-weight="700" fill="#ffffff" text-anchor="middle" letter-spacing="0">3</text><rect x="35" y="290" width="14" height="18" rx="1.8" fill="none" stroke="#a7c0bc" stroke-width="1.9"/><path d="M39 294 h1 M44 294 h1 M39 299 h1 M44 299 h1" stroke="#a7c0bc" stroke-width="1.9"/><text x="66" y="305" font-family="Inter, -apple-system, 'Segoe UI', Arial, sans-serif" font-size="14.5" font-weight="500" fill="#a7c0bc" text-anchor="start" letter-spacing="0">Shelters</text><circle cx="42" cy="349" r="4.5" fill="none" stroke="#a7c0bc" stroke-width="1.9"/><path d="M34 363 c0 -6 16 -6 16 0" fill="none" stroke="#a7c0bc" stroke-width="1.9"/><text x="66" y="359" font-family="Inter, -apple-system, 'Segoe UI', Arial, sans-serif" font-size="14.5" font-weight="500" fill="#a7c0bc" text-anchor="start" letter-spacing="0">Members</text><text x="42" y="413" font-family="Inter, -apple-system, 'Segoe UI', Arial, sans-serif" font-size="18" font-weight="700" fill="#a7c0bc" text-anchor="middle" letter-spacing="0">₱</text><text x="66" y="413" font-family="Inter, -apple-system, 'Segoe UI', Arial, sans-serif" font-size="14.5" font-weight="500" fill="#a7c0bc" text-anchor="start" letter-spacing="0">Donations</text><circle cx="42" cy="461" r="7" fill="none" stroke="#a7c0bc" stroke-width="1.9"/><circle cx="42" cy="461" r="2.5" fill="#a7c0bc"/><text x="66" y="467" font-family="Inter, -apple-system, 'Segoe UI', Arial, sans-serif" font-size="14.5" font-weight="500" fill="#a7c0bc" text-anchor="start" letter-spacing="0">Settings</text><rect x="16" y="854" width="232" height="64" rx="16" fill="rgba(255,255,255,0.06)"/><text x="34" y="890" font-family="Inter, -apple-system, 'Segoe UI', Arial, sans-serif" font-size="13" font-weight="700" fill="#ffffff" text-anchor="start" letter-spacing="0">Need a hand?</text><text x="34" y="908" font-family="Inter, -apple-system, 'Segoe UI', Arial, sans-serif" font-size="12" font-weight="600" fill="#8fb0ac" text-anchor="start" letter-spacing="0">Ops runbook →</text><rect x="264" y="0" width="1236" height="88" fill="#ffffff"/><line x1="264" y1="88" x2="1500" y2="88" stroke="#eeeee9" stroke-width="1"/><text x="308" y="44" font-family="Inter, -apple-system, 'Segoe UI', Arial, sans-serif" font-size="25" font-weight="800" fill="#0f1b2d" text-anchor="start" letter-spacing="-0.2">Good morning, Rina</text><text x="308" y="68" font-family="Inter, -apple-system, 'Segoe UI', Arial, sans-serif" font-size="13.5" font-weight="400" fill="#6b7280" text-anchor="start" letter-spacing="0">7 verifications and 3 flags need you today</text><circle cx="1444" cy="44" r="19" fill="#e7f0ef"/><text x="1444" y="50.46" font-family="Inter, -apple-system, 'Segoe UI', Arial, sans-serif" font-size="15.579999999999998" font-weight="700" fill="#1C6B6B" text-anchor="middle" letter-spacing="0">RA</text><text x="1412" y="41" font-family="Inter, -apple-system, 'Segoe UI', Arial, sans-serif" font-size="14" font-weight="700" fill="#0f1b2d" text-anchor="end" letter-spacing="0">Rina Alonzo</text><text x="1412" y="58" font-family="Inter, -apple-system, 'Segoe UI', Arial, sans-serif" font-size="11.5" font-weight="400" fill="#9aa3ad" text-anchor="end" letter-spacing="0">Platform admin</text><circle cx="1286" cy="44" r="19" fill="#f4f5f3"/><path d="M1280 45 q0 -9 6 -9 q6 0 6 9 l2 4 h-16 z" fill="none" stroke="#6b7280" stroke-width="1.7" stroke-linejoin="round"/><path d="M1284 49 a2.6 2.6 0 0 0 5 0" fill="none" stroke="#6b7280" stroke-width="1.7"/><circle cx="1292" cy="37" r="4" fill="#c2453f"/><g transform="translate(0,88)"><rect x="308" y="40" width="272" height="128" rx="20" fill="#ffffff" stroke="#eeeee9" stroke-width="1" filter="url(#sh)"/><rect x="334" y="66" width="44" height="44" rx="13" fill="#fbf0dc"/><circle cx="356" cy="88" r="8" fill="none" stroke="#9a6a1a" stroke-width="2"/><path d="M356 84 v4 l3 2" fill="none" stroke="#9a6a1a" stroke-width="2" stroke-linecap="round"/><text x="334" y="144" font-family="Inter, -apple-system, 'Segoe UI', Arial, sans-serif" font-size="13.5" font-weight="400" fill="#6b7280" text-anchor="start" letter-spacing="0">Pending verifications</text><text x="554" y="96" font-family="Inter, -apple-system, 'Segoe UI', Arial, sans-serif" font-size="38" font-weight="800" fill="#0f1b2d" text-anchor="end" letter-spacing="-0.5">7</text><text x="554" y="132" font-family="Inter, -apple-system, 'Segoe UI', Arial, sans-serif" font-size="12.5" font-weight="700" fill="#1f7a4d" text-anchor="end" letter-spacing="0">▲ 2 today</text><rect x="600" y="40" width="272" height="128" rx="20" fill="#ffffff" stroke="#eeeee9" stroke-width="1" filter="url(#sh)"/><rect x="626" y="66" width="44" height="44" rx="13" fill="#f9e7e5"/><path d="M641 79 v18 M641 79 h13 l-3 4 l3 4 h-13" fill="none" stroke="#c2453f" stroke-width="2" stroke-linejoin="round" stroke-linecap="round"/><text x="626" y="144" font-family="Inter, -apple-system, 'Segoe UI', Arial, sans-serif" font-size="13.5" font-weight="400" fill="#6b7280" text-anchor="start" letter-spacing="0">Open moderation flags</text><text x="846" y="96" font-family="Inter, -apple-system, 'Segoe UI', Arial, sans-serif" font-size="38" font-weight="800" fill="#0f1b2d" text-anchor="end" letter-spacing="-0.5">3</text><text x="846" y="132" font-family="Inter, -apple-system, 'Segoe UI', Arial, sans-serif" font-size="12.5" font-weight="700" fill="#1f7a4d" text-anchor="end" letter-spacing="0">▲ 1 today</text><rect x="892" y="40" width="272" height="128" rx="20" fill="#ffffff" stroke="#eeeee9" stroke-width="1" filter="url(#sh)"/><rect x="918" y="66" width="44" height="44" rx="13" fill="#e7f0ef"/><rect x="933" y="79" width="14" height="18" rx="1.8" fill="none" stroke="#1C6B6B" stroke-width="2"/><path d="M937 83 h1 M942 83 h1 M937 88 h1 M942 88 h1" stroke="#1C6B6B" stroke-width="2"/><text x="1138" y="96" font-family="Inter, -apple-system, 'Segoe UI', Arial, sans-serif" font-size="38" font-weight="800" fill="#0f1b2d" text-anchor="end" letter-spacing="-0.5">128</text><text x="918" y="144" font-family="Inter, -apple-system, 'Segoe UI', Arial, sans-serif" font-size="13.5" font-weight="400" fill="#6b7280" text-anchor="start" letter-spacing="0">Verified orgs</text><text x="1138" y="140" font-family="Inter, -apple-system, 'Segoe UI', Arial, sans-serif" font-size="11.5" font-weight="600" fill="#6b7280" text-anchor="end" letter-spacing="0">84 rescues · 44 shelters</text><rect x="1184" y="40" width="272" height="128" rx="20" fill="#ffffff" stroke="#eeeee9" stroke-width="1" filter="url(#sh)"/><rect x="1210" y="66" width="44" height="44" rx="13" fill="#ecebf6"/><circle cx="1232" cy="84" r="4.5" fill="none" stroke="#5b53a6" stroke-width="2"/><path d="M1224 98 c0 -6 16 -6 16 0" fill="none" stroke="#5b53a6" stroke-width="2"/><text x="1210" y="144" font-family="Inter, -apple-system, 'Segoe UI', Arial, sans-serif" font-size="13.5" font-weight="400" fill="#6b7280" text-anchor="start" letter-spacing="0">Members</text><text x="1430" y="96" font-family="Inter, -apple-system, 'Segoe UI', Arial, sans-serif" font-size="38" font-weight="800" fill="#0f1b2d" text-anchor="end" letter-spacing="-0.5">3.4k</text><text x="1430" y="132" font-family="Inter, -apple-system, 'Segoe UI', Arial, sans-serif" font-size="12.5" font-weight="700" fill="#1f7a4d" text-anchor="end" letter-spacing="0">▲ 112 this week</text><rect x="308" y="204" width="724" height="486" rx="20" fill="#ffffff" stroke="#eeeee9" stroke-width="1" filter="url(#sh)"/><text x="336" y="248" font-family="Inter, -apple-system, 'Segoe UI', Arial, sans-serif" font-size="17" font-weight="800" fill="#0f1b2d" text-anchor="start" letter-spacing="0">Verification queue</text><text x="1004" y="248" font-family="Inter, -apple-system, 'Segoe UI', Arial, sans-serif" font-size="13.5" font-weight="700" fill="#1C6B6B" text-anchor="end" letter-spacing="0">View all →</text><circle cx="358" cy="306" r="21" fill="#e7f0ef"/><text x="358" y="313.14" font-family="Inter, -apple-system, 'Segoe UI', Arial, sans-serif" font-size="17.22" font-weight="700" fill="#1C6B6B" text-anchor="middle" letter-spacing="0">PM</text><text x="392" y="302" font-family="Inter, -apple-system, 'Segoe UI', Arial, sans-serif" font-size="15.5" font-weight="700" fill="#0f1b2d" text-anchor="start" letter-spacing="0">PAWS Manila</text><text x="392" y="322" font-family="Inter, -apple-system, 'Segoe UI', Arial, sans-serif" font-size="13" font-weight="400" fill="#6b7280" text-anchor="start" letter-spacing="0">NGO · 2h ago</text><rect x="800" y="293" width="83.19999999999999" height="28" rx="14" fill="#fbf0dc"/><circle cx="815" cy="307" r="4" fill="#9a6a1a"/><text x="826" y="311.5" font-family="Inter, -apple-system, 'Segoe UI', Arial, sans-serif" font-size="12.5" font-weight="700" fill="#9a6a1a" text-anchor="start" letter-spacing="0">Pending</text><rect x="912" y="288" width="92" height="38" rx="11" fill="url(#btn)"/><text x="958" y="312" font-family="Inter, -apple-system, 'Segoe UI', Arial, sans-serif" font-size="13.5" font-weight="700" fill="#ffffff" text-anchor="middle" letter-spacing="0">Review</text><line x1="336" y1="350" x2="1004" y2="350" stroke="#eeeee9" stroke-width="1"/><circle cx="358" cy="384" r="21" fill="#e7f0ef"/><text x="358" y="391.14" font-family="Inter, -apple-system, 'Segoe UI', Arial, sans-serif" font-size="17.22" font-weight="700" fill="#1C6B6B" text-anchor="middle" letter-spacing="0">MA</text><text x="392" y="380" font-family="Inter, -apple-system, 'Segoe UI', Arial, sans-serif" font-size="15.5" font-weight="700" fill="#0f1b2d" text-anchor="start" letter-spacing="0">Marikina AWG</text><text x="392" y="400" font-family="Inter, -apple-system, 'Segoe UI', Arial, sans-serif" font-size="13" font-weight="400" fill="#6b7280" text-anchor="start" letter-spacing="0">NGO · 5h ago</text><rect x="800" y="371" width="83.19999999999999" height="28" rx="14" fill="#fbf0dc"/><circle cx="815" cy="385" r="4" fill="#9a6a1a"/><text x="826" y="389.5" font-family="Inter, -apple-system, 'Segoe UI', Arial, sans-serif" font-size="12.5" font-weight="700" fill="#9a6a1a" text-anchor="start" letter-spacing="0">Pending</text><rect x="912" y="366" width="92" height="38" rx="11" fill="url(#btn)"/><text x="958" y="390" font-family="Inter, -apple-system, 'Segoe UI', Arial, sans-serif" font-size="13.5" font-weight="700" fill="#ffffff" text-anchor="middle" letter-spacing="0">Review</text><line x1="336" y1="428" x2="1004" y2="428" stroke="#eeeee9" stroke-width="1"/><circle cx="358" cy="462" r="21" fill="#e7f0ef"/><text x="358" y="469.14" font-family="Inter, -apple-system, 'Segoe UI', Arial, sans-serif" font-size="17.22" font-weight="700" fill="#1C6B6B" text-anchor="middle" letter-spacing="0">MS</text><text x="392" y="458" font-family="Inter, -apple-system, 'Segoe UI', Arial, sans-serif" font-size="15.5" font-weight="700" fill="#0f1b2d" text-anchor="start" letter-spacing="0">Maria Santos</text><text x="392" y="478" font-family="Inter, -apple-system, 'Segoe UI', Arial, sans-serif" font-size="13" font-weight="400" fill="#6b7280" text-anchor="start" letter-spacing="0">Member · 1d ago</text><rect x="800" y="449" width="106" height="28" rx="14" fill="#e2eef0"/><circle cx="815" cy="463" r="4" fill="#1C6B6B"/><text x="826" y="467.5" font-family="Inter, -apple-system, 'Segoe UI', Arial, sans-serif" font-size="12.5" font-weight="700" fill="#1C6B6B" text-anchor="start" letter-spacing="0">Needs info</text><rect x="912" y="444" width="92" height="38" rx="11" fill="url(#btn)"/><text x="958" y="468" font-family="Inter, -apple-system, 'Segoe UI', Arial, sans-serif" font-size="13.5" font-weight="700" fill="#ffffff" text-anchor="middle" letter-spacing="0">Review</text><line x1="336" y1="506" x2="1004" y2="506" stroke="#eeeee9" stroke-width="1"/><circle cx="358" cy="540" r="21" fill="#e7f0ef"/><text x="358" y="547.14" font-family="Inter, -apple-system, 'Segoe UI', Arial, sans-serif" font-size="17.22" font-weight="700" fill="#1C6B6B" text-anchor="middle" letter-spacing="0">PP</text><text x="392" y="536" font-family="Inter, -apple-system, 'Segoe UI', Arial, sans-serif" font-size="15.5" font-weight="700" fill="#0f1b2d" text-anchor="start" letter-spacing="0">Pasig Pound</text><text x="392" y="556" font-family="Inter, -apple-system, 'Segoe UI', Arial, sans-serif" font-size="13" font-weight="400" fill="#6b7280" text-anchor="start" letter-spacing="0">Rescue · 1d ago</text><rect x="800" y="527" width="83.19999999999999" height="28" rx="14" fill="#fbf0dc"/><circle cx="815" cy="541" r="4" fill="#9a6a1a"/><text x="826" y="545.5" font-family="Inter, -apple-system, 'Segoe UI', Arial, sans-serif" font-size="12.5" font-weight="700" fill="#9a6a1a" text-anchor="start" letter-spacing="0">Pending</text><rect x="912" y="522" width="92" height="38" rx="11" fill="url(#btn)"/><text x="958" y="546" font-family="Inter, -apple-system, 'Segoe UI', Arial, sans-serif" font-size="13.5" font-weight="700" fill="#ffffff" text-anchor="middle" letter-spacing="0">Review</text><line x1="336" y1="584" x2="1004" y2="584" stroke="#eeeee9" stroke-width="1"/><circle cx="358" cy="618" r="21" fill="#e7f0ef"/><text x="358" y="625.14" font-family="Inter, -apple-system, 'Segoe UI', Arial, sans-serif" font-size="17.22" font-weight="700" fill="#1C6B6B" text-anchor="middle" letter-spacing="0">JC</text><text x="392" y="614" font-family="Inter, -apple-system, 'Segoe UI', Arial, sans-serif" font-size="15.5" font-weight="700" fill="#0f1b2d" text-anchor="start" letter-spacing="0">Jose Cruz</text><text x="392" y="634" font-family="Inter, -apple-system, 'Segoe UI', Arial, sans-serif" font-size="13" font-weight="400" fill="#6b7280" text-anchor="start" letter-spacing="0">Member · 2d ago</text><rect x="800" y="605" width="83.19999999999999" height="28" rx="14" fill="#fbf0dc"/><circle cx="815" cy="619" r="4" fill="#9a6a1a"/><text x="826" y="623.5" font-family="Inter, -apple-system, 'Segoe UI', Arial, sans-serif" font-size="12.5" font-weight="700" fill="#9a6a1a" text-anchor="start" letter-spacing="0">Pending</text><rect x="912" y="600" width="92" height="38" rx="11" fill="url(#btn)"/><text x="958" y="624" font-family="Inter, -apple-system, 'Segoe UI', Arial, sans-serif" font-size="13.5" font-weight="700" fill="#ffffff" text-anchor="middle" letter-spacing="0">Review</text><rect x="1056" y="204" width="400" height="486" rx="20" fill="#ffffff" stroke="#eeeee9" stroke-width="1" filter="url(#sh)"/><text x="1082" y="248" font-family="Inter, -apple-system, 'Segoe UI', Arial, sans-serif" font-size="17" font-weight="800" fill="#0f1b2d" text-anchor="start" letter-spacing="0">Recent flags</text><rect x="1082" y="286" width="69.80000000000001" height="26" rx="13" fill="#f0efe9"/><text x="1116.9" y="303.5" font-family="Inter, -apple-system, 'Segoe UI', Arial, sans-serif" font-size="12.5" font-weight="700" fill="#6b7280" text-anchor="middle" letter-spacing="0">Listing</text><rect x="1369.6" y="287" width="60.4" height="28" rx="14" fill="#fbf0dc"/><circle cx="1384.6" cy="301" r="4" fill="#9a6a1a"/><text x="1395.6" y="305.5" font-family="Inter, -apple-system, 'Segoe UI', Arial, sans-serif" font-size="12.5" font-weight="700" fill="#9a6a1a" text-anchor="start" letter-spacing="0">Open</text><text x="1082" y="336" font-family="Inter, -apple-system, 'Segoe UI', Arial, sans-serif" font-size="13.5" font-weight="500" fill="#0f1b2d" text-anchor="start" letter-spacing="0">“Free puppies!!” — possible spam</text><text x="1082" y="358" font-family="Inter, -apple-system, 'Segoe UI', Arial, sans-serif" font-size="12.5" font-weight="700" fill="#1C6B6B" text-anchor="start" letter-spacing="0">Review flag →</text><line x1="1082" y1="370" x2="1430" y2="370" stroke="#eeeee9" stroke-width="1"/><rect x="1082" y="386" width="69.80000000000001" height="26" rx="13" fill="#f0efe9"/><text x="1116.9" y="403.5" font-family="Inter, -apple-system, 'Segoe UI', Arial, sans-serif" font-size="12.5" font-weight="700" fill="#6b7280" text-anchor="middle" letter-spacing="0">Message</text><rect x="1369.6" y="387" width="60.4" height="28" rx="14" fill="#fbf0dc"/><circle cx="1384.6" cy="401" r="4" fill="#9a6a1a"/><text x="1395.6" y="405.5" font-family="Inter, -apple-system, 'Segoe UI', Arial, sans-serif" font-size="12.5" font-weight="700" fill="#9a6a1a" text-anchor="start" letter-spacing="0">Open</text><text x="1082" y="436" font-family="Inter, -apple-system, 'Segoe UI', Arial, sans-serif" font-size="13.5" font-weight="500" fill="#0f1b2d" text-anchor="start" letter-spacing="0">Reported by 2 users</text><text x="1082" y="458" font-family="Inter, -apple-system, 'Segoe UI', Arial, sans-serif" font-size="12.5" font-weight="700" fill="#1C6B6B" text-anchor="start" letter-spacing="0">Review flag →</text><line x1="1082" y1="470" x2="1430" y2="470" stroke="#eeeee9" stroke-width="1"/><rect x="1082" y="486" width="69.80000000000001" height="26" rx="13" fill="#f0efe9"/><text x="1116.9" y="503.5" font-family="Inter, -apple-system, 'Segoe UI', Arial, sans-serif" font-size="12.5" font-weight="700" fill="#6b7280" text-anchor="middle" letter-spacing="0">Account</text><rect x="1369.6" y="487" width="60.4" height="28" rx="14" fill="#fbf0dc"/><circle cx="1384.6" cy="501" r="4" fill="#9a6a1a"/><text x="1395.6" y="505.5" font-family="Inter, -apple-system, 'Segoe UI', Arial, sans-serif" font-size="12.5" font-weight="700" fill="#9a6a1a" text-anchor="start" letter-spacing="0">Open</text><text x="1082" y="536" font-family="Inter, -apple-system, 'Segoe UI', Arial, sans-serif" font-size="13.5" font-weight="500" fill="#0f1b2d" text-anchor="start" letter-spacing="0">Duplicate shelter profile</text><text x="1082" y="558" font-family="Inter, -apple-system, 'Segoe UI', Arial, sans-serif" font-size="12.5" font-weight="700" fill="#1C6B6B" text-anchor="start" letter-spacing="0">Review flag →</text><line x1="1082" y1="570" x2="1430" y2="570" stroke="#eeeee9" stroke-width="1"/><rect x="1082" y="586" width="69.80000000000001" height="26" rx="13" fill="#f0efe9"/><text x="1116.9" y="603.5" font-family="Inter, -apple-system, 'Segoe UI', Arial, sans-serif" font-size="12.5" font-weight="700" fill="#6b7280" text-anchor="middle" letter-spacing="0">Listing</text><rect x="1339.2" y="587" width="90.8" height="28" rx="14" fill="#e7f4ec"/><circle cx="1354.2" cy="601" r="4" fill="#1f7a4d"/><text x="1365.2" y="605.5" font-family="Inter, -apple-system, 'Segoe UI', Arial, sans-serif" font-size="12.5" font-weight="700" fill="#1f7a4d" text-anchor="start" letter-spacing="0">Resolved</text><text x="1082" y="636" font-family="Inter, -apple-system, 'Segoe UI', Arial, sans-serif" font-size="13.5" font-weight="500" fill="#0f1b2d" text-anchor="start" letter-spacing="0">Wrong photos on a listing</text><text x="1082" y="658" font-family="Inter, -apple-system, 'Segoe UI', Arial, sans-serif" font-size="12.5" font-weight="700" fill="#1C6B6B" text-anchor="start" letter-spacing="0">Review flag →</text></g></g></svg>