<svg xmlns="http://www.w3.org/2000/svg" width="1500" height="998" viewBox="0 0 1500 998"><defs>
    <filter id="sh" x="-25%" y="-25%" width="150%" height="150%"><feDropShadow dx="0" dy="8" stdDeviation="18" flood-color="#16233b" flood-opacity="0.06"/></filter>
    <filter id="glow" x="-40%" y="-40%" width="180%" height="180%"><feDropShadow dx="0" dy="4" stdDeviation="9" flood-color="#1C6B6B" flood-opacity="0.45"/></filter>
    <linearGradient id="sb" x1="0" y1="0" x2="0" y2="1"><stop offset="0" stop-color="#14281f"/><stop offset="1" stop-color="#0c1b15"/></linearGradient>
    <linearGradient id="btn" x1="0" y1="0" x2="0" y2="1"><stop offset="0" stop-color="#20787a"/><stop offset="1" stop-color="#155150"/></linearGradient>
  </defs><rect width="1500" height="998" fill="#f4f5f3"/><rect x="0" y="0" width="1500" height="48" rx="0" fill="#edece6"/><circle cx="28" cy="24" r="6.5" fill="#e06c5b"/><circle cx="50" cy="24" r="6.5" fill="#e3b341"/><circle cx="72" cy="24" r="6.5" fill="#4caf6d"/><rect x="118" y="13" width="620" height="24" rx="12" fill="#ffffff"/><circle cx="0" cy="0" r="8" fill="none" stroke="transparent" stroke-width="1.9"/><path d="M0 -4 v4 l3 2" fill="none" stroke="transparent" stroke-width="1.9" stroke-linecap="round"/><circle cx="140" cy="25" r="5" fill="none" stroke="#9aa3ad" stroke-width="1.5"/><path d="M143 28 l3 3" stroke="#9aa3ad" stroke-width="1.5" stroke-linecap="round"/><text x="158" y="29" font-family="Inter, -apple-system, 'Segoe UI', Arial, sans-serif" font-size="12.5" font-weight="400" fill="#6b7280" text-anchor="start" letter-spacing="0">admin.kupkopph.com/moderation</text><g transform="translate(0,48)"><rect x="0" y="0" width="264" height="950" fill="url(#sb)"/><rect x="24" y="26" width="34" height="34" rx="11" fill="url(#btn)"/><text x="41" y="49" font-family="Inter, -apple-system, 'Segoe UI', Arial, sans-serif" font-size="18" font-weight="800" fill="#ffffff" text-anchor="middle" letter-spacing="0">K</text><text x="70" y="42" font-family="Inter, -apple-system, 'Segoe UI', Arial, sans-serif" font-size="18" font-weight="800" fill="#ffffff" text-anchor="start" letter-spacing="0.2">Kupkop</text><text x="70" y="60" font-family="Inter, -apple-system, 'Segoe UI', Arial, sans-serif" font-size="11.5" font-weight="400" fill="#7f9a97" text-anchor="start" letter-spacing="0.6">Platform Ops</text><text x="28" y="104" font-family="Inter, -apple-system, 'Segoe UI', Arial, sans-serif" font-size="11" font-weight="700" fill="#5c7370" text-anchor="start" letter-spacing="1.4">MENU</text><g fill="none" stroke="#a7c0bc" stroke-width="1.9"><rect x="34" y="129" width="7" height="7" rx="1.6"/><rect x="43" y="129" width="7" height="7" rx="1.6"/><rect x="34" y="138" width="7" height="7" rx="1.6"/><rect x="43" y="138" width="7" height="7" rx="1.6"/></g><text x="66" y="143" font-family="Inter, -apple-system, 'Segoe UI', Arial, sans-serif" font-size="14.5" font-weight="500" fill="#a7c0bc" text-anchor="start" letter-spacing="0">Dashboard</text><path d="M42 182 l8 3 v5 c0 5 -4 7 -8 8 c-4 -1 -8 -3 -8 -8 v-5 z" fill="none" stroke="#a7c0bc" stroke-width="1.9"/><polyline points="36,192 41,197 49,186" fill="none" stroke="#a7c0bc" stroke-width="1.9" stroke-linecap="round" stroke-linejoin="round"/><text x="66" y="197" font-family="Inter, -apple-system, 'Segoe UI', Arial, sans-serif" font-size="14.5" font-weight="500" fill="#a7c0bc" text-anchor="start" letter-spacing="0">Verifications</text><rect x="206" y="179" width="25.4" height="26" rx="13" fill="#1C6B6B"/><text x="218.7" y="196.5" font-family="Inter, -apple-system, 'Segoe UI', Arial, sans-serif" font-size="12.5" font-weight="700" fill="#ffffff" text-anchor="middle" letter-spacing="0">7</text><rect x="16" y="223" width="232" height="46" rx="13" fill="url(#btn)" filter="url(#glow)"/><path d="M35 236 v18 M35 236 h13 l-3 4 l3 4 h-13" fill="none" stroke="#ffffff" stroke-width="2.1" stroke-linejoin="round" stroke-linecap="round"/><text x="66" y="251" font-family="Inter, -apple-system, 'Segoe UI', Arial, sans-serif" font-size="14.5" font-weight="700" fill="#ffffff" text-anchor="start" letter-spacing="0">Moderation</text><rect x="206" y="233" width="25.4" height="26" rx="13" fill="rgba(255,255,255,0.22)"/><text x="218.7" y="250.5" font-family="Inter, -apple-system, 'Segoe UI', Arial, sans-serif" font-size="12.5" font-weight="700" fill="#ffffff" text-anchor="middle" letter-spacing="0">3</text><rect x="35" y="290" width="14" height="18" rx="1.8" fill="none" stroke="#a7c0bc" stroke-width="1.9"/><path d="M39 294 h1 M44 294 h1 M39 299 h1 M44 299 h1" stroke="#a7c0bc" stroke-width="1.9"/><text x="66" y="305" font-family="Inter, -apple-system, 'Segoe UI', Arial, sans-serif" font-size="14.5" font-weight="500" fill="#a7c0bc" text-anchor="start" letter-spacing="0">Shelters</text><circle cx="42" cy="349" r="4.5" fill="none" stroke="#a7c0bc" stroke-width="1.9"/><path d="M34 363 c0 -6 16 -6 16 0" fill="none" stroke="#a7c0bc" stroke-width="1.9"/><text x="66" y="359" font-family="Inter, -apple-system, 'Segoe UI', Arial, sans-serif" font-size="14.5" font-weight="500" fill="#a7c0bc" text-anchor="start" letter-spacing="0">Members</text><text x="42" y="413" font-family="Inter, -apple-system, 'Segoe UI', Arial, sans-serif" font-size="18" font-weight="700" fill="#a7c0bc" text-anchor="middle" letter-spacing="0">₱</text><text x="66" y="413" font-family="Inter, -apple-system, 'Segoe UI', Arial, sans-serif" font-size="14.5" font-weight="500" fill="#a7c0bc" text-anchor="start" letter-spacing="0">Donations</text><circle cx="42" cy="461" r="7" fill="none" stroke="#a7c0bc" stroke-width="1.9"/><circle cx="42" cy="461" r="2.5" fill="#a7c0bc"/><text x="66" y="467" font-family="Inter, -apple-system, 'Segoe UI', Arial, sans-serif" font-size="14.5" font-weight="500" fill="#a7c0bc" text-anchor="start" letter-spacing="0">Settings</text><rect x="16" y="854" width="232" height="64" rx="16" fill="rgba(255,255,255,0.06)"/><text x="34" y="890" font-family="Inter, -apple-system, 'Segoe UI', Arial, sans-serif" font-size="13" font-weight="700" fill="#ffffff" text-anchor="start" letter-spacing="0">Need a hand?</text><text x="34" y="908" font-family="Inter, -apple-system, 'Segoe UI', Arial, sans-serif" font-size="12" font-weight="600" fill="#8fb0ac" text-anchor="start" letter-spacing="0">Ops runbook →</text><rect x="264" y="0" width="1236" height="88" fill="#ffffff"/><line x1="264" y1="88" x2="1500" y2="88" stroke="#eeeee9" stroke-width="1"/><text x="308" y="44" font-family="Inter, -apple-system, 'Segoe UI', Arial, sans-serif" font-size="25" font-weight="800" fill="#0f1b2d" text-anchor="start" letter-spacing="-0.2">Moderation</text><text x="308" y="68" font-family="Inter, -apple-system, 'Segoe UI', Arial, sans-serif" font-size="13.5" font-weight="400" fill="#6b7280" text-anchor="start" letter-spacing="0">3 open flags</text><circle cx="1444" cy="44" r="19" fill="#e7f0ef"/><text x="1444" y="50.46" font-family="Inter, -apple-system, 'Segoe UI', Arial, sans-serif" font-size="15.579999999999998" font-weight="700" fill="#1C6B6B" text-anchor="middle" letter-spacing="0">RA</text><text x="1412" y="41" font-family="Inter, -apple-system, 'Segoe UI', Arial, sans-serif" font-size="14" font-weight="700" fill="#0f1b2d" text-anchor="end" letter-spacing="0">Rina Alonzo</text><text x="1412" y="58" font-family="Inter, -apple-system, 'Segoe UI', Arial, sans-serif" font-size="11.5" font-weight="400" fill="#9aa3ad" text-anchor="end" letter-spacing="0">Platform admin</text><circle cx="1286" cy="44" r="19" fill="#f4f5f3"/><path d="M1280 45 q0 -9 6 -9 q6 0 6 9 l2 4 h-16 z" fill="none" stroke="#6b7280" stroke-width="1.7" stroke-linejoin="round"/><path d="M1284 49 a2.6 2.6 0 0 0 5 0" fill="none" stroke="#6b7280" stroke-width="1.7"/><circle cx="1292" cy="37" r="4" fill="#c2453f"/><g transform="translate(0,88)"><rect x="308" y="36" width="68" height="40" rx="20" fill="#0f1b2d"/><text x="342" y="61" font-family="Inter, -apple-system, 'Segoe UI', Arial, sans-serif" font-size="14" font-weight="700" fill="#ffffff" text-anchor="middle" letter-spacing="0">Open</text><rect x="388" y="36" width="102" height="40" rx="20" fill="#ffffff" stroke="#eeeee9" stroke-width="1"/><text x="439" y="61" font-family="Inter, -apple-system, 'Segoe UI', Arial, sans-serif" font-size="14" font-weight="500" fill="#16233b" text-anchor="middle" letter-spacing="0">Actioned</text><rect x="502" y="36" width="110.5" height="40" rx="20" fill="#ffffff" stroke="#eeeee9" stroke-width="1"/><text x="557.25" y="61" font-family="Inter, -apple-system, 'Segoe UI', Arial, sans-serif" font-size="14" font-weight="500" fill="#16233b" text-anchor="middle" letter-spacing="0">Dismissed</text><rect x="1136" y="36" width="320" height="40" rx="20" fill="#ffffff" stroke="#eeeee9" stroke-width="1"/><circle cx="1160" cy="56" r="6" fill="none" stroke="#9aa3ad" stroke-width="1.6"/><path d="M1165 61 l4 4" stroke="#9aa3ad" stroke-width="1.6" stroke-linecap="round"/><text x="1182" y="61" font-family="Inter, -apple-system, 'Segoe UI', Arial, sans-serif" font-size="13.5" font-weight="400" fill="#9aa3ad" text-anchor="start" letter-spacing="0">Search flags…</text><rect x="308" y="108" width="1148" height="718" rx="20" fill="#ffffff" stroke="#eeeee9" stroke-width="1" filter="url(#sh)"/><text x="336" y="148" font-family="Inter, -apple-system, 'Segoe UI', Arial, sans-serif" font-size="11.5" font-weight="700" fill="#9aa3ad" text-anchor="start" letter-spacing="0.8">TYPE</text><text x="478" y="148" font-family="Inter, -apple-system, 'Segoe UI', Arial, sans-serif" font-size="11.5" font-weight="700" fill="#9aa3ad" text-anchor="start" letter-spacing="0.8">FLAGGED</text><text x="928" y="148" font-family="Inter, -apple-system, 'Segoe UI', Arial, sans-serif" font-size="11.5" font-weight="700" fill="#9aa3ad" text-anchor="start" letter-spacing="0.8">REPORTED BY</text><text x="1098" y="148" font-family="Inter, -apple-system, 'Segoe UI', Arial, sans-serif" font-size="11.5" font-weight="700" fill="#9aa3ad" text-anchor="start" letter-spacing="0.8">WHEN</text><text x="1200" y="148" font-family="Inter, -apple-system, 'Segoe UI', Arial, sans-serif" font-size="11.5" font-weight="700" fill="#9aa3ad" text-anchor="start" letter-spacing="0.8">STATUS</text><text x="1328" y="148" font-family="Inter, -apple-system, 'Segoe UI', Arial, sans-serif" font-size="11.5" font-weight="700" fill="#9aa3ad" text-anchor="start" letter-spacing="0.8"></text><line x1="328" y1="166" x2="1436" y2="166" stroke="#eeeee9" stroke-width="1"/><rect x="336" y="198" width="69.80000000000001" height="26" rx="13" fill="#e7f0ef"/><text x="370.9" y="215.5" font-family="Inter, -apple-system, 'Segoe UI', Arial, sans-serif" font-size="12.5" font-weight="700" fill="#1C6B6B" text-anchor="middle" letter-spacing="0">Listing</text><text x="478" y="214" font-family="Inter, -apple-system, 'Segoe UI', Arial, sans-serif" font-size="14.5" font-weight="600" fill="#0f1b2d" text-anchor="start" letter-spacing="0">“Free puppies!! Take one now!!!” — suspected spam</text><text x="928" y="214" font-family="Inter, -apple-system, 'Segoe UI', Arial, sans-serif" font-size="13.5" font-weight="400" fill="#6b7280" text-anchor="start" letter-spacing="0">1 report</text><text x="1098" y="214" font-family="Inter, -apple-system, 'Segoe UI', Arial, sans-serif" font-size="13.5" font-weight="400" fill="#6b7280" text-anchor="start" letter-spacing="0">2h ago</text><rect x="1200" y="196" width="60.4" height="28" rx="14" fill="#fbf0dc"/><circle cx="1215" cy="210" r="4" fill="#9a6a1a"/><text x="1226" y="214.5" font-family="Inter, -apple-system, 'Segoe UI', Arial, sans-serif" font-size="12.5" font-weight="700" fill="#9a6a1a" text-anchor="start" letter-spacing="0">Open</text><rect x="1328" y="191" width="108" height="38" rx="11" fill="url(#btn)"/><text x="1382" y="215" font-family="Inter, -apple-system, 'Segoe UI', Arial, sans-serif" font-size="13.5" font-weight="700" fill="#ffffff" text-anchor="middle" letter-spacing="0">Review</text><line x1="328" y1="254" x2="1436" y2="254" stroke="#eeeee9" stroke-width="1"/><rect x="336" y="286" width="55" height="26" rx="13" fill="#e7f4ec"/><text x="363.5" y="303.5" font-family="Inter, -apple-system, 'Segoe UI', Arial, sans-serif" font-size="12.5" font-weight="700" fill="#1f7a4d" text-anchor="middle" letter-spacing="0">Story</text><text x="478" y="302" font-family="Inter, -apple-system, 'Segoe UI', Arial, sans-serif" font-size="14.5" font-weight="600" fill="#0f1b2d" text-anchor="start" letter-spacing="0">Off-topic — not a real success story</text><text x="928" y="302" font-family="Inter, -apple-system, 'Segoe UI', Arial, sans-serif" font-size="13.5" font-weight="400" fill="#6b7280" text-anchor="start" letter-spacing="0">1 report</text><text x="1098" y="302" font-family="Inter, -apple-system, 'Segoe UI', Arial, sans-serif" font-size="13.5" font-weight="400" fill="#6b7280" text-anchor="start" letter-spacing="0">6h ago</text><rect x="1200" y="284" width="60.4" height="28" rx="14" fill="#fbf0dc"/><circle cx="1215" cy="298" r="4" fill="#9a6a1a"/><text x="1226" y="302.5" font-family="Inter, -apple-system, 'Segoe UI', Arial, sans-serif" font-size="12.5" font-weight="700" fill="#9a6a1a" text-anchor="start" letter-spacing="0">Open</text><rect x="1328" y="279" width="108" height="38" rx="11" fill="url(#btn)"/><text x="1382" y="303" font-family="Inter, -apple-system, 'Segoe UI', Arial, sans-serif" font-size="13.5" font-weight="700" fill="#ffffff" text-anchor="middle" letter-spacing="0">Review</text><line x1="328" y1="342" x2="1436" y2="342" stroke="#eeeee9" stroke-width="1"/><rect x="336" y="374" width="69.80000000000001" height="26" rx="13" fill="#ecebf6"/><text x="370.9" y="391.5" font-family="Inter, -apple-system, 'Segoe UI', Arial, sans-serif" font-size="12.5" font-weight="700" fill="#5b53a6" text-anchor="middle" letter-spacing="0">Message</text><text x="478" y="390" font-family="Inter, -apple-system, 'Segoe UI', Arial, sans-serif" font-size="14.5" font-weight="600" fill="#0f1b2d" text-anchor="start" letter-spacing="0">Harassment in an adoption inquiry thread</text><text x="928" y="390" font-family="Inter, -apple-system, 'Segoe UI', Arial, sans-serif" font-size="13.5" font-weight="400" fill="#6b7280" text-anchor="start" letter-spacing="0">2 reports</text><text x="1098" y="390" font-family="Inter, -apple-system, 'Segoe UI', Arial, sans-serif" font-size="13.5" font-weight="400" fill="#6b7280" text-anchor="start" letter-spacing="0">5h ago</text><rect x="1200" y="372" width="60.4" height="28" rx="14" fill="#fbf0dc"/><circle cx="1215" cy="386" r="4" fill="#9a6a1a"/><text x="1226" y="390.5" font-family="Inter, -apple-system, 'Segoe UI', Arial, sans-serif" font-size="12.5" font-weight="700" fill="#9a6a1a" text-anchor="start" letter-spacing="0">Open</text><rect x="1328" y="367" width="108" height="38" rx="11" fill="url(#btn)"/><text x="1382" y="391" font-family="Inter, -apple-system, 'Segoe UI', Arial, sans-serif" font-size="13.5" font-weight="700" fill="#ffffff" text-anchor="middle" letter-spacing="0">Review</text><line x1="328" y1="430" x2="1436" y2="430" stroke="#eeeee9" stroke-width="1"/><rect x="336" y="462" width="69.80000000000001" height="26" rx="13" fill="#fbf0dc"/><text x="370.9" y="479.5" font-family="Inter, -apple-system, 'Segoe UI', Arial, sans-serif" font-size="12.5" font-weight="700" fill="#9a6a1a" text-anchor="middle" letter-spacing="0">Account</text><text x="478" y="478" font-family="Inter, -apple-system, 'Segoe UI', Arial, sans-serif" font-size="14.5" font-weight="600" fill="#0f1b2d" text-anchor="start" letter-spacing="0">Duplicate shelter profile</text><text x="928" y="478" font-family="Inter, -apple-system, 'Segoe UI', Arial, sans-serif" font-size="13.5" font-weight="400" fill="#6b7280" text-anchor="start" letter-spacing="0">System</text><text x="1098" y="478" font-family="Inter, -apple-system, 'Segoe UI', Arial, sans-serif" font-size="13.5" font-weight="400" fill="#6b7280" text-anchor="start" letter-spacing="0">1d ago</text><rect x="1200" y="460" width="60.4" height="28" rx="14" fill="#fbf0dc"/><circle cx="1215" cy="474" r="4" fill="#9a6a1a"/><text x="1226" y="478.5" font-family="Inter, -apple-system, 'Segoe UI', Arial, sans-serif" font-size="12.5" font-weight="700" fill="#9a6a1a" text-anchor="start" letter-spacing="0">Open</text><rect x="1328" y="455" width="108" height="38" rx="11" fill="url(#btn)"/><text x="1382" y="479" font-family="Inter, -apple-system, 'Segoe UI', Arial, sans-serif" font-size="13.5" font-weight="700" fill="#ffffff" text-anchor="middle" letter-spacing="0">Review</text><line x1="328" y1="518" x2="1436" y2="518" stroke="#eeeee9" stroke-width="1"/><rect x="336" y="550" width="55" height="26" rx="13" fill="#e7f4ec"/><text x="363.5" y="567.5" font-family="Inter, -apple-system, 'Segoe UI', Arial, sans-serif" font-size="12.5" font-weight="700" fill="#1f7a4d" text-anchor="middle" letter-spacing="0">Story</text><text x="478" y="566" font-family="Inter, -apple-system, 'Segoe UI', Arial, sans-serif" font-size="14.5" font-weight="600" fill="#0f1b2d" text-anchor="start" letter-spacing="0">Misleading — animal wasn't actually adopted</text><text x="928" y="566" font-family="Inter, -apple-system, 'Segoe UI', Arial, sans-serif" font-size="13.5" font-weight="400" fill="#6b7280" text-anchor="start" letter-spacing="0">2 reports</text><text x="1098" y="566" font-family="Inter, -apple-system, 'Segoe UI', Arial, sans-serif" font-size="13.5" font-weight="400" fill="#6b7280" text-anchor="start" letter-spacing="0">2d ago</text><rect x="1200" y="548" width="90.8" height="28" rx="14" fill="#e7f4ec"/><circle cx="1215" cy="562" r="4" fill="#1f7a4d"/><text x="1226" y="566.5" font-family="Inter, -apple-system, 'Segoe UI', Arial, sans-serif" font-size="12.5" font-weight="700" fill="#1f7a4d" text-anchor="start" letter-spacing="0">Actioned</text><rect x="1328" y="543" width="108" height="38" rx="11" fill="#ffffff" stroke="#eeeee9" stroke-width="1"/><text x="1382" y="567" font-family="Inter, -apple-system, 'Segoe UI', Arial, sans-serif" font-size="13.5" font-weight="700" fill="#16233b" text-anchor="middle" letter-spacing="0">View</text><line x1="328" y1="606" x2="1436" y2="606" stroke="#eeeee9" stroke-width="1"/><rect x="336" y="638" width="69.80000000000001" height="26" rx="13" fill="#ecebf6"/><text x="370.9" y="655.5" font-family="Inter, -apple-system, 'Segoe UI', Arial, sans-serif" font-size="12.5" font-weight="700" fill="#5b53a6" text-anchor="middle" letter-spacing="0">Message</text><text x="478" y="654" font-family="Inter, -apple-system, 'Segoe UI', Arial, sans-serif" font-size="14.5" font-weight="600" fill="#0f1b2d" text-anchor="start" letter-spacing="0">Off-topic comment on a story</text><text x="928" y="654" font-family="Inter, -apple-system, 'Segoe UI', Arial, sans-serif" font-size="13.5" font-weight="400" fill="#6b7280" text-anchor="start" letter-spacing="0">1 report</text><text x="1098" y="654" font-family="Inter, -apple-system, 'Segoe UI', Arial, sans-serif" font-size="13.5" font-weight="400" fill="#6b7280" text-anchor="start" letter-spacing="0">3d ago</text><rect x="1200" y="636" width="98.39999999999999" height="28" rx="14" fill="#eceae4"/><circle cx="1215" cy="650" r="4" fill="#6b7280"/><text x="1226" y="654.5" font-family="Inter, -apple-system, 'Segoe UI', Arial, sans-serif" font-size="12.5" font-weight="700" fill="#6b7280" text-anchor="start" letter-spacing="0">Dismissed</text><rect x="1328" y="631" width="108" height="38" rx="11" fill="#ffffff" stroke="#eeeee9" stroke-width="1"/><text x="1382" y="655" font-family="Inter, -apple-system, 'Segoe UI', Arial, sans-serif" font-size="13.5" font-weight="700" fill="#16233b" text-anchor="middle" letter-spacing="0">View</text></g></g></svg>