<svg xmlns="http://www.w3.org/2000/svg" width="600" height="1230" viewBox="0 0 600 1230">
    <rect x="4" y="4" width="592" height="1222" rx="76" fill="#11241f"/>
    <rect x="30" y="30" width="540" height="1170" rx="48" fill="#ffffff"/>
    <clipPath id="sc"><rect x="30" y="30" width="540" height="1170" rx="48"/></clipPath>
    <defs>
  <filter id="v2sh" x="-30%" y="-30%" width="160%" height="160%"><feDropShadow dx="0" dy="10" stdDeviation="16" flood-color="#1F3A5F" flood-opacity="0.10"/></filter>
  <filter id="v2soft" x="-30%" y="-30%" width="160%" height="160%"><feDropShadow dx="0" dy="4" stdDeviation="7" flood-color="#1F3A5F" flood-opacity="0.08"/></filter>
  <linearGradient id="v2btn" x1="0" y1="0" x2="0" y2="1"><stop offset="0" stop-color="#238383"/><stop offset="1" stop-color="#14504F"/></linearGradient>
  <linearGradient id="v2danger" x1="0" y1="0" x2="0" y2="1"><stop offset="0" stop-color="#C94A44"/><stop offset="1" stop-color="#9E322D"/></linearGradient>
  <linearGradient id="v2hero" x1="0" y1="0" x2="1" y2="1"><stop offset="0" stop-color="#1C6B6B"/><stop offset="1" stop-color="#11241F"/></linearGradient>
  <linearGradient id="v2fade" x1="0" y1="0" x2="0" y2="1"><stop offset="0" stop-color="#F4F5F2" stop-opacity="0"/><stop offset="0.5" stop-color="#F4F5F2" stop-opacity="0.9"/><stop offset="1" stop-color="#F4F5F2"/></linearGradient>
</defs>
    <g clip-path="url(#sc)"><g transform="translate(30,30)"><rect width="540" height="1170" fill="#F4F5F2"/><text x="34" y="38" font-family="Arial, sans-serif" font-size="22" font-weight="700" fill="#1F3A5F" text-anchor="start" letter-spacing="0">9:41</text><circle cx="486" cy="32" r="5" fill="#1F3A5F"/><circle cx="502" cy="32" r="5" fill="#1F3A5F"/><rect x="470" y="22" width="40" height="18" rx="4" fill="none" stroke="#1F3A5F" stroke-width="2"/><circle cx="56" cy="66" r="22" fill="#ffffff" filter="url(#v2soft)"/><text x="56" y="76" font-family="Arial, sans-serif" font-size="30" font-weight="700" fill="#12213A" text-anchor="middle" letter-spacing="0">‹</text><text x="270" y="76" font-family="Arial, sans-serif" font-size="22" font-weight="800" fill="#12213A" text-anchor="middle" letter-spacing="0">Export my data</text><rect x="216" y="182" width="108" height="108" rx="34" fill="url(#v2hero)"/><path d="M257 220 h18 l8 8 v24 h-26 z" fill="none" stroke="#ffffff" stroke-width="2.5" stroke-linejoin="round"/><path d="M275 220 v8 h8" fill="none" stroke="#ffffff" stroke-width="2.5" stroke-linejoin="round"/><line x1="264" y1="239" x2="279" y2="239" stroke="#ffffff" stroke-width="2.5"/><line x1="264" y1="247" x2="279" y2="247" stroke="#ffffff" stroke-width="2.5"/><text x="270" y="340" font-family="Arial, sans-serif" font-size="30" font-weight="800" fill="#12213A" text-anchor="middle" letter-spacing="-0.5">Your data is ready</text><text x="270" y="378" font-family="Arial, sans-serif" font-size="18" font-weight="normal" fill="#5f5e5a" text-anchor="middle" letter-spacing="0">A single file you can open anywhere.</text><rect x="34" y="424" width="472" height="92" rx="22" fill="#ffffff" filter="url(#v2sh)"/><path d="M67 454 h18 l8 8 v24 h-26 z" fill="none" stroke="#1C6B6B" stroke-width="2.5" stroke-linejoin="round"/><path d="M85 454 v8 h8" fill="none" stroke="#1C6B6B" stroke-width="2.5" stroke-linejoin="round"/><line x1="74" y1="473" x2="89" y2="473" stroke="#1C6B6B" stroke-width="2.5"/><line x1="74" y1="481" x2="89" y2="481" stroke="#1C6B6B" stroke-width="2.5"/><text x="118" y="462" font-family="Arial, sans-serif" font-size="18" font-weight="700" fill="#12213A" text-anchor="start" letter-spacing="0">kupkop-export-2026-09-04.json</text><text x="118" y="488" font-family="Arial, sans-serif" font-size="15" font-weight="normal" fill="#5f5e5a" text-anchor="start" letter-spacing="0">148 KB · JSON</text><text x="34" y="570" font-family="Arial, sans-serif" font-size="16" font-weight="700" fill="#5f5e5a" text-anchor="start" letter-spacing="1.5">WHAT'S INSIDE</text><rect x="34" y="588" width="472" height="268" rx="20" fill="#ffffff" filter="url(#v2sh)"/><circle cx="66" cy="622" r="4" fill="#1C6B6B"/><text x="86" y="628" font-family="Arial, sans-serif" font-size="17" font-weight="normal" fill="#12213A" text-anchor="start" letter-spacing="0">Your profile, settings and saved city</text><circle cx="66" cy="668" r="4" fill="#1C6B6B"/><text x="86" y="674" font-family="Arial, sans-serif" font-size="17" font-weight="normal" fill="#12213A" text-anchor="start" letter-spacing="0">Your pets and adoption listings</text><circle cx="66" cy="714" r="4" fill="#1C6B6B"/><text x="86" y="720" font-family="Arial, sans-serif" font-size="17" font-weight="normal" fill="#12213A" text-anchor="start" letter-spacing="0">Reports you filed and rescues you joined</text><circle cx="66" cy="760" r="4" fill="#1C6B6B"/><text x="86" y="766" font-family="Arial, sans-serif" font-size="17" font-weight="normal" fill="#12213A" text-anchor="start" letter-spacing="0">Volunteer shifts, pledges and badges</text><circle cx="66" cy="806" r="4" fill="#1C6B6B"/><text x="86" y="812" font-family="Arial, sans-serif" font-size="17" font-weight="normal" fill="#12213A" text-anchor="start" letter-spacing="0">Your stories and notifications</text><text x="34" y="892" font-family="Arial, sans-serif" font-size="15" font-weight="normal" fill="#5f5e5a" text-anchor="start" letter-spacing="0">Other people's details aren't included, even in</text><text x="34" y="914" font-family="Arial, sans-serif" font-size="15" font-weight="normal" fill="#5f5e5a" text-anchor="start" letter-spacing="0">inquiries and shifts you shared with them.</text><rect x="34" y="958" width="472" height="68" rx="34" fill="url(#v2btn)" filter="url(#v2soft)"/><text x="270" y="1001" font-family="Arial, sans-serif" font-size="23" font-weight="700" fill="#ffffff" text-anchor="middle" letter-spacing="0">Share file</text></g></g>
    <rect x="240" y="44" width="120" height="30" rx="15" fill="#11241f"/>
  </svg>