<svg xmlns="http://www.w3.org/2000/svg" width="600" height="1230" viewBox="0 0 600 1230">
    <rect x="4" y="4" width="592" height="1222" rx="76" fill="#11241f"/>
    <rect x="30" y="30" width="540" height="1170" rx="48" fill="#ffffff"/>
    <clipPath id="sc"><rect x="30" y="30" width="540" height="1170" rx="48"/></clipPath>
    <defs>
  <filter id="v2sh" x="-30%" y="-30%" width="160%" height="160%"><feDropShadow dx="0" dy="10" stdDeviation="16" flood-color="#1F3A5F" flood-opacity="0.10"/></filter>
  <filter id="v2soft" x="-30%" y="-30%" width="160%" height="160%"><feDropShadow dx="0" dy="4" stdDeviation="7" flood-color="#1F3A5F" flood-opacity="0.08"/></filter>
  <linearGradient id="v2btn" x1="0" y1="0" x2="0" y2="1"><stop offset="0" stop-color="#238383"/><stop offset="1" stop-color="#14504F"/></linearGradient>
  <linearGradient id="v2danger" x1="0" y1="0" x2="0" y2="1"><stop offset="0" stop-color="#C94A44"/><stop offset="1" stop-color="#9E322D"/></linearGradient>
  <linearGradient id="v2hero" x1="0" y1="0" x2="1" y2="1"><stop offset="0" stop-color="#1C6B6B"/><stop offset="1" stop-color="#11241F"/></linearGradient>
  <linearGradient id="v2fade" x1="0" y1="0" x2="0" y2="1"><stop offset="0" stop-color="#F4F5F2" stop-opacity="0"/><stop offset="0.5" stop-color="#F4F5F2" stop-opacity="0.9"/><stop offset="1" stop-color="#F4F5F2"/></linearGradient>
</defs>
    <g clip-path="url(#sc)"><g transform="translate(30,30)"><rect width="540" height="1170" fill="#F4F5F2"/><text x="34" y="38" font-family="Arial, sans-serif" font-size="22" font-weight="700" fill="#1F3A5F" text-anchor="start" letter-spacing="0">9:41</text><circle cx="486" cy="32" r="5" fill="#1F3A5F"/><circle cx="502" cy="32" r="5" fill="#1F3A5F"/><rect x="470" y="22" width="40" height="18" rx="4" fill="none" stroke="#1F3A5F" stroke-width="2"/><circle cx="56" cy="66" r="22" fill="#ffffff" filter="url(#v2soft)"/><text x="56" y="76" font-family="Arial, sans-serif" font-size="30" font-weight="700" fill="#12213A" text-anchor="middle" letter-spacing="0">‹</text><text x="270" y="76" font-family="Arial, sans-serif" font-size="22" font-weight="800" fill="#12213A" text-anchor="middle" letter-spacing="0">Abot-tulong</text><text x="34" y="152" font-family="Arial, sans-serif" font-size="28" font-weight="800" fill="#12213A" text-anchor="start" letter-spacing="0">Support a shelter</text><text x="34" y="184" font-family="Arial, sans-serif" font-size="15" font-weight="normal" fill="#5f5e5a" text-anchor="start" letter-spacing="0">100% goes to the shelter — Kupkop takes nothing.</text><rect x="34" y="212" width="70" height="52" rx="26" fill="#1C6B6B" stroke="#1C6B6B" stroke-width="1.5"/><text x="69" y="246" font-family="Arial, sans-serif" font-size="20" font-weight="700" fill="#ffffff" text-anchor="middle" letter-spacing="0">All</text><rect x="118" y="212" width="106" height="52" rx="26" fill="#ffffff" filter="url(#v2sh)"/><text x="171" y="246" font-family="Arial, sans-serif" font-size="20" font-weight="700" fill="#1F3A5F" text-anchor="middle" letter-spacing="0">Nearby</text><rect x="238" y="212" width="130" height="52" rx="26" fill="#ffffff" filter="url(#v2sh)"/><text x="303" y="246" font-family="Arial, sans-serif" font-size="20" font-weight="700" fill="#1F3A5F" text-anchor="middle" letter-spacing="0">Verified</text><rect x="34" y="288" width="472" height="100" rx="20" fill="#ffffff" filter="url(#v2sh)"/><rect x="52" y="308" width="60" height="60" rx="18.6" fill="#e7f0ef"/><rect x="66" y="322" width="32" height="32" rx="4" fill="#1C6B6B"/><rect x="71.12" y="326.48" width="4.8" height="4.8" fill="#e7f0ef"/><rect x="80.08000000000001" y="326.48" width="4.8" height="4.8" fill="#e7f0ef"/><rect x="89.04" y="326.48" width="4.8" height="4.8" fill="#e7f0ef"/><rect x="71.12" y="334.8" width="4.8" height="4.8" fill="#e7f0ef"/><rect x="80.08000000000001" y="334.8" width="4.8" height="4.8" fill="#e7f0ef"/><rect x="89.04" y="334.8" width="4.8" height="4.8" fill="#e7f0ef"/><rect x="78.8" y="343.12" width="6.4" height="10.88" fill="#e7f0ef"/><text x="128" y="330" font-family="Arial, sans-serif" font-size="21" font-weight="800" fill="#12213A" text-anchor="start" letter-spacing="0">PAWS Manila</text><circle cx="288.6" cy="323" r="12" fill="#1C6B6B"/><polyline points="283.20000000000005,323 287.16,327.2 294.6,318.2" fill="none" stroke="#ffffff" stroke-width="2.64" stroke-linecap="round" stroke-linejoin="round"/><text x="128" y="358" font-family="Arial, sans-serif" font-size="15" font-weight="normal" fill="#5f5e5a" text-anchor="start" letter-spacing="0">Marikina City · 3 open needs</text><rect x="402" y="304" width="84" height="30" rx="15" fill="#FAEEDA"/><text x="444" y="324" font-family="Arial, sans-serif" font-size="14" font-weight="700" fill="#633806" text-anchor="middle" letter-spacing="0">Urgent</text><text x="486" y="354" font-family="Arial, sans-serif" font-size="32" font-weight="normal" fill="#b8b6ad" text-anchor="end" letter-spacing="0">›</text><rect x="34" y="402" width="472" height="100" rx="20" fill="#ffffff" filter="url(#v2sh)"/><rect x="52" y="422" width="60" height="60" rx="18.6" fill="#e7f0ef"/><rect x="66" y="436" width="32" height="32" rx="4" fill="#1C6B6B"/><rect x="71.12" y="440.48" width="4.8" height="4.8" fill="#e7f0ef"/><rect x="80.08000000000001" y="440.48" width="4.8" height="4.8" fill="#e7f0ef"/><rect x="89.04" y="440.48" width="4.8" height="4.8" fill="#e7f0ef"/><rect x="71.12" y="448.8" width="4.8" height="4.8" fill="#e7f0ef"/><rect x="80.08000000000001" y="448.8" width="4.8" height="4.8" fill="#e7f0ef"/><rect x="89.04" y="448.8" width="4.8" height="4.8" fill="#e7f0ef"/><rect x="78.8" y="457.12" width="6.4" height="10.88" fill="#e7f0ef"/><text x="128" y="444" font-family="Arial, sans-serif" font-size="21" font-weight="800" fill="#12213A" text-anchor="start" letter-spacing="0">Marikina AWG</text><circle cx="301.2" cy="437" r="12" fill="#1C6B6B"/><polyline points="295.8,437 299.76,441.2 307.2,432.2" fill="none" stroke="#ffffff" stroke-width="2.64" stroke-linecap="round" stroke-linejoin="round"/><text x="128" y="472" font-family="Arial, sans-serif" font-size="15" font-weight="normal" fill="#5f5e5a" text-anchor="start" letter-spacing="0">Marikina City · 2 open needs</text><text x="486" y="468" font-family="Arial, sans-serif" font-size="32" font-weight="normal" fill="#b8b6ad" text-anchor="end" letter-spacing="0">›</text><rect x="34" y="516" width="472" height="100" rx="20" fill="#ffffff" filter="url(#v2sh)"/><rect x="52" y="536" width="60" height="60" rx="18.6" fill="#e7f0ef"/><rect x="66" y="550" width="32" height="32" rx="4" fill="#1C6B6B"/><rect x="71.12" y="554.48" width="4.8" height="4.8" fill="#e7f0ef"/><rect x="80.08000000000001" y="554.48" width="4.8" height="4.8" fill="#e7f0ef"/><rect x="89.04" y="554.48" width="4.8" height="4.8" fill="#e7f0ef"/><rect x="71.12" y="562.8000000000001" width="4.8" height="4.8" fill="#e7f0ef"/><rect x="80.08000000000001" y="562.8000000000001" width="4.8" height="4.8" fill="#e7f0ef"/><rect x="89.04" y="562.8000000000001" width="4.8" height="4.8" fill="#e7f0ef"/><rect x="78.8" y="571.12" width="6.4" height="10.88" fill="#e7f0ef"/><text x="128" y="558" font-family="Arial, sans-serif" font-size="21" font-weight="800" fill="#12213A" text-anchor="start" letter-spacing="0">CARA Welfare</text><circle cx="301.2" cy="551" r="12" fill="#1C6B6B"/><polyline points="295.8,551 299.76,555.2 307.2,546.2" fill="none" stroke="#ffffff" stroke-width="2.64" stroke-linecap="round" stroke-linejoin="round"/><text x="128" y="586" font-family="Arial, sans-serif" font-size="15" font-weight="normal" fill="#5f5e5a" text-anchor="start" letter-spacing="0">Manila · 5 open needs</text><text x="486" y="582" font-family="Arial, sans-serif" font-size="32" font-weight="normal" fill="#b8b6ad" text-anchor="end" letter-spacing="0">›</text><rect x="34" y="630" width="472" height="100" rx="20" fill="#ffffff" filter="url(#v2sh)"/><rect x="52" y="650" width="60" height="60" rx="18.6" fill="#e7f0ef"/><rect x="66" y="664" width="32" height="32" rx="4" fill="#1C6B6B"/><rect x="71.12" y="668.48" width="4.8" height="4.8" fill="#e7f0ef"/><rect x="80.08000000000001" y="668.48" width="4.8" height="4.8" fill="#e7f0ef"/><rect x="89.04" y="668.48" width="4.8" height="4.8" fill="#e7f0ef"/><rect x="71.12" y="676.8000000000001" width="4.8" height="4.8" fill="#e7f0ef"/><rect x="80.08000000000001" y="676.8000000000001" width="4.8" height="4.8" fill="#e7f0ef"/><rect x="89.04" y="676.8000000000001" width="4.8" height="4.8" fill="#e7f0ef"/><rect x="78.8" y="685.12" width="6.4" height="10.88" fill="#e7f0ef"/><text x="128" y="672" font-family="Arial, sans-serif" font-size="21" font-weight="800" fill="#12213A" text-anchor="start" letter-spacing="0">Pasig Pound</text><text x="128" y="700" font-family="Arial, sans-serif" font-size="15" font-weight="normal" fill="#5f5e5a" text-anchor="start" letter-spacing="0">Pasig City · 1 open need</text><text x="486" y="696" font-family="Arial, sans-serif" font-size="32" font-weight="normal" fill="#b8b6ad" text-anchor="end" letter-spacing="0">›</text></g></g>
    <rect x="240" y="44" width="120" height="30" rx="15" fill="#11241f"/>
  </svg>