<svg xmlns="http://www.w3.org/2000/svg" width="600" height="1230" viewBox="0 0 600 1230">
    <rect x="4" y="4" width="592" height="1222" rx="76" fill="#11241f"/>
    <rect x="30" y="30" width="540" height="1170" rx="48" fill="#ffffff"/>
    <clipPath id="sc"><rect x="30" y="30" width="540" height="1170" rx="48"/></clipPath>
    <defs>
  <filter id="v2sh" x="-30%" y="-30%" width="160%" height="160%"><feDropShadow dx="0" dy="10" stdDeviation="16" flood-color="#1F3A5F" flood-opacity="0.10"/></filter>
  <filter id="v2soft" x="-30%" y="-30%" width="160%" height="160%"><feDropShadow dx="0" dy="4" stdDeviation="7" flood-color="#1F3A5F" flood-opacity="0.08"/></filter>
  <linearGradient id="v2btn" x1="0" y1="0" x2="0" y2="1"><stop offset="0" stop-color="#238383"/><stop offset="1" stop-color="#14504F"/></linearGradient>
  <linearGradient id="v2danger" x1="0" y1="0" x2="0" y2="1"><stop offset="0" stop-color="#C94A44"/><stop offset="1" stop-color="#9E322D"/></linearGradient>
  <linearGradient id="v2hero" x1="0" y1="0" x2="1" y2="1"><stop offset="0" stop-color="#1C6B6B"/><stop offset="1" stop-color="#11241F"/></linearGradient>
  <linearGradient id="v2fade" x1="0" y1="0" x2="0" y2="1"><stop offset="0" stop-color="#F4F5F2" stop-opacity="0"/><stop offset="0.5" stop-color="#F4F5F2" stop-opacity="0.9"/><stop offset="1" stop-color="#F4F5F2"/></linearGradient>
</defs>
    <g clip-path="url(#sc)"><g transform="translate(30,30)"><rect width="540" height="1170" fill="#F4F5F2"/><text x="34" y="38" font-family="Arial, sans-serif" font-size="22" font-weight="700" fill="#1F3A5F" text-anchor="start" letter-spacing="0">9:41</text><circle cx="486" cy="32" r="5" fill="#1F3A5F"/><circle cx="502" cy="32" r="5" fill="#1F3A5F"/><rect x="470" y="22" width="40" height="18" rx="4" fill="none" stroke="#1F3A5F" stroke-width="2"/><circle cx="56" cy="66" r="22" fill="#ffffff" filter="url(#v2soft)"/><text x="56" y="76" font-family="Arial, sans-serif" font-size="30" font-weight="700" fill="#12213A" text-anchor="middle" letter-spacing="0">‹</text><text x="270" y="76" font-family="Arial, sans-serif" font-size="22" font-weight="800" fill="#12213A" text-anchor="middle" letter-spacing="0">Edit activity</text><text x="34" y="164" font-family="Arial, sans-serif" font-size="18" font-weight="700" fill="#1F3A5F" text-anchor="start" letter-spacing="0">Activity type</text><rect x="34" y="182" width="118" height="52" rx="26" fill="#1C6B6B" stroke="#1C6B6B" stroke-width="1.5"/><text x="93" y="216" font-family="Arial, sans-serif" font-size="20" font-weight="700" fill="#ffffff" text-anchor="middle" letter-spacing="0">Walking</text><rect x="166" y="182" width="118" height="52" rx="26" fill="#ffffff" filter="url(#v2sh)"/><text x="225" y="216" font-family="Arial, sans-serif" font-size="20" font-weight="700" fill="#1F3A5F" text-anchor="middle" letter-spacing="0">Feeding</text><rect x="298" y="182" width="118" height="52" rx="26" fill="#ffffff" filter="url(#v2sh)"/><text x="357" y="216" font-family="Arial, sans-serif" font-size="20" font-weight="700" fill="#1F3A5F" text-anchor="middle" letter-spacing="0">Visitor</text><rect x="34" y="258" width="472" height="82" rx="22" fill="#ffffff" filter="url(#v2soft)"/><text x="60" y="288" font-family="Arial, sans-serif" font-size="13" font-weight="600" fill="#5f5e5a" text-anchor="start" letter-spacing="0.4">Title</text><text x="60" y="322" font-family="Arial, sans-serif" font-size="20" font-weight="700" fill="#12213A" text-anchor="start" letter-spacing="0">Morning dog walk</text><text x="34" y="378" font-family="Arial, sans-serif" font-size="18" font-weight="700" fill="#1F3A5F" text-anchor="start" letter-spacing="0">Date &amp; time</text><rect x="34" y="394" width="472" height="64" rx="16" fill="#ffffff" filter="url(#v2sh)"/><text x="58" y="435" font-family="Arial, sans-serif" font-size="20" font-weight="600" fill="#1F3A5F" text-anchor="start" letter-spacing="0">Sat, Jul 12 · 8:00–10:00 AM</text><rect x="455" y="415" width="30" height="26" rx="4" fill="none" stroke="#5f5e5a" stroke-width="3"/><line x1="455" y1="423" x2="485" y2="423" stroke="#5f5e5a" stroke-width="3"/><line x1="462" y1="410" x2="462" y2="418" stroke="#5f5e5a" stroke-width="3" stroke-linecap="round"/><line x1="478" y1="410" x2="478" y2="418" stroke="#5f5e5a" stroke-width="3" stroke-linecap="round"/><rect x="34" y="502" width="260" height="82" rx="22" fill="#ffffff" filter="url(#v2soft)"/><text x="60" y="532" font-family="Arial, sans-serif" font-size="13" font-weight="600" fill="#5f5e5a" text-anchor="start" letter-spacing="0.4">Volunteers needed</text><text x="60" y="566" font-family="Arial, sans-serif" font-size="20" font-weight="700" fill="#12213A" text-anchor="start" letter-spacing="0">6</text><text x="310" y="516" font-family="Arial, sans-serif" font-size="15" font-weight="normal" fill="#5f5e5a" text-anchor="start" letter-spacing="0">4 signed up</text><text x="310" y="540" font-family="Arial, sans-serif" font-size="15" font-weight="normal" fill="#5f5e5a" text-anchor="start" letter-spacing="0">so far</text><text x="34" y="620" font-family="Arial, sans-serif" font-size="14" font-weight="normal" fill="#5f5e5a" text-anchor="start" letter-spacing="0">Changes notify signed-up volunteers.</text><rect x="34" y="700" width="472" height="68" rx="34" fill="url(#v2btn)" filter="url(#v2soft)"/><text x="270" y="743" font-family="Arial, sans-serif" font-size="23" font-weight="700" fill="#ffffff" text-anchor="middle" letter-spacing="0">Save changes</text><text x="270" y="820" font-family="Arial, sans-serif" font-size="17" font-weight="700" fill="#B23B3B" text-anchor="middle" letter-spacing="0">Cancel this activity</text></g></g>
    <rect x="240" y="44" width="120" height="30" rx="15" fill="#11241f"/>
  </svg>