<svg xmlns="http://www.w3.org/2000/svg" width="600" height="1230" viewBox="0 0 600 1230">
    <rect x="4" y="4" width="592" height="1222" rx="76" fill="#11241f"/>
    <rect x="30" y="30" width="540" height="1170" rx="48" fill="#ffffff"/>
    <clipPath id="sc"><rect x="30" y="30" width="540" height="1170" rx="48"/></clipPath>
    <defs>
  <filter id="v2sh" x="-30%" y="-30%" width="160%" height="160%"><feDropShadow dx="0" dy="10" stdDeviation="16" flood-color="#1F3A5F" flood-opacity="0.10"/></filter>
  <filter id="v2soft" x="-30%" y="-30%" width="160%" height="160%"><feDropShadow dx="0" dy="4" stdDeviation="7" flood-color="#1F3A5F" flood-opacity="0.08"/></filter>
  <linearGradient id="v2btn" x1="0" y1="0" x2="0" y2="1"><stop offset="0" stop-color="#238383"/><stop offset="1" stop-color="#14504F"/></linearGradient>
  <linearGradient id="v2danger" x1="0" y1="0" x2="0" y2="1"><stop offset="0" stop-color="#C94A44"/><stop offset="1" stop-color="#9E322D"/></linearGradient>
  <linearGradient id="v2hero" x1="0" y1="0" x2="1" y2="1"><stop offset="0" stop-color="#1C6B6B"/><stop offset="1" stop-color="#11241F"/></linearGradient>
  <linearGradient id="v2fade" x1="0" y1="0" x2="0" y2="1"><stop offset="0" stop-color="#F4F5F2" stop-opacity="0"/><stop offset="0.5" stop-color="#F4F5F2" stop-opacity="0.9"/><stop offset="1" stop-color="#F4F5F2"/></linearGradient>
</defs>
    <g clip-path="url(#sc)"><g transform="translate(30,30)"><rect width="540" height="1170" fill="#F4F5F2"/><text x="34" y="38" font-family="Arial, sans-serif" font-size="22" font-weight="700" fill="#1F3A5F" text-anchor="start" letter-spacing="0">9:41</text><circle cx="486" cy="32" r="5" fill="#1F3A5F"/><circle cx="502" cy="32" r="5" fill="#1F3A5F"/><rect x="470" y="22" width="40" height="18" rx="4" fill="none" stroke="#1F3A5F" stroke-width="2"/><circle cx="56" cy="66" r="22" fill="#ffffff" filter="url(#v2soft)"/><text x="56" y="76" font-family="Arial, sans-serif" font-size="30" font-weight="700" fill="#12213A" text-anchor="middle" letter-spacing="0">‹</text><text x="270" y="76" font-family="Arial, sans-serif" font-size="22" font-weight="800" fill="#12213A" text-anchor="middle" letter-spacing="0">Verification</text><circle cx="270" cy="230" r="72" fill="#FAEEDA"/><circle cx="270" cy="230" r="42" fill="none" stroke="#633806" stroke-width="4"/><line x1="270" y1="211.1" x2="270" y2="235.04" stroke="#633806" stroke-width="4" stroke-linecap="round"/><circle cx="270" cy="248.9" r="2.8" fill="#633806"/><text x="270" y="356" font-family="Arial, sans-serif" font-size="30" font-weight="700" fill="#1F3A5F" text-anchor="middle" letter-spacing="0">More info needed</text><text x="270" y="396" font-family="Arial, sans-serif" font-size="19" font-weight="normal" fill="#5f5e5a" text-anchor="middle" letter-spacing="0">One document needs a clearer copy.</text><rect x="34" y="464" width="472" height="150" rx="20" fill="#FAEEDA"/><text x="58" y="506" font-family="Arial, sans-serif" font-size="15" font-weight="700" fill="#633806" text-anchor="start" letter-spacing="1">REVIEWER NOTE</text><text x="58" y="544" font-family="Arial, sans-serif" font-size="18" font-weight="normal" fill="#1F3A5F" text-anchor="start" letter-spacing="0">The SEC certificate photo is blurry —</text><text x="58" y="572" font-family="Arial, sans-serif" font-size="18" font-weight="normal" fill="#1F3A5F" text-anchor="start" letter-spacing="0">please re-upload a clearer copy.</text><rect x="34" y="690" width="472" height="68" rx="34" fill="url(#v2btn)" filter="url(#v2soft)"/><text x="270" y="733" font-family="Arial, sans-serif" font-size="23" font-weight="700" fill="#ffffff" text-anchor="middle" letter-spacing="0">Update documents</text><rect x="34" y="774" width="472" height="64" rx="32" fill="#ffffff" filter="url(#v2soft)"/><text x="270" y="814" font-family="Arial, sans-serif" font-size="19" font-weight="700" fill="#12213A" text-anchor="middle" letter-spacing="0">Contact support</text><text x="270" y="884" font-family="Arial, sans-serif" font-size="17" font-weight="700" fill="#1C6B6B" text-anchor="middle" letter-spacing="0">Track my documents ›</text></g></g>
    <rect x="240" y="44" width="120" height="30" rx="15" fill="#11241f"/>
  </svg>