<svg xmlns="http://www.w3.org/2000/svg" width="600" height="1230" viewBox="0 0 600 1230">
    <rect x="4" y="4" width="592" height="1222" rx="76" fill="#11241f"/>
    <rect x="30" y="30" width="540" height="1170" rx="48" fill="#ffffff"/>
    <clipPath id="sc"><rect x="30" y="30" width="540" height="1170" rx="48"/></clipPath>
    <defs>
  <filter id="v2sh" x="-30%" y="-30%" width="160%" height="160%"><feDropShadow dx="0" dy="10" stdDeviation="16" flood-color="#1F3A5F" flood-opacity="0.10"/></filter>
  <filter id="v2soft" x="-30%" y="-30%" width="160%" height="160%"><feDropShadow dx="0" dy="4" stdDeviation="7" flood-color="#1F3A5F" flood-opacity="0.08"/></filter>
  <linearGradient id="v2btn" x1="0" y1="0" x2="0" y2="1"><stop offset="0" stop-color="#238383"/><stop offset="1" stop-color="#14504F"/></linearGradient>
  <linearGradient id="v2danger" x1="0" y1="0" x2="0" y2="1"><stop offset="0" stop-color="#C94A44"/><stop offset="1" stop-color="#9E322D"/></linearGradient>
  <linearGradient id="v2hero" x1="0" y1="0" x2="1" y2="1"><stop offset="0" stop-color="#1C6B6B"/><stop offset="1" stop-color="#11241F"/></linearGradient>
  <linearGradient id="v2fade" x1="0" y1="0" x2="0" y2="1"><stop offset="0" stop-color="#F4F5F2" stop-opacity="0"/><stop offset="0.5" stop-color="#F4F5F2" stop-opacity="0.9"/><stop offset="1" stop-color="#F4F5F2"/></linearGradient>
</defs>
    <g clip-path="url(#sc)"><g transform="translate(30,30)"><rect width="540" height="1170" fill="#F4F5F2"/><text x="34" y="38" font-family="Arial, sans-serif" font-size="22" font-weight="700" fill="#1F3A5F" text-anchor="start" letter-spacing="0">9:41</text><circle cx="486" cy="32" r="5" fill="#1F3A5F"/><circle cx="502" cy="32" r="5" fill="#1F3A5F"/><rect x="470" y="22" width="40" height="18" rx="4" fill="none" stroke="#1F3A5F" stroke-width="2"/><circle cx="56" cy="66" r="22" fill="#ffffff" filter="url(#v2soft)"/><text x="56" y="76" font-family="Arial, sans-serif" font-size="30" font-weight="700" fill="#12213A" text-anchor="middle" letter-spacing="0">‹</text><text x="270" y="76" font-family="Arial, sans-serif" font-size="22" font-weight="800" fill="#12213A" text-anchor="middle" letter-spacing="0">Adoption offer</text><circle cx="270" cy="238" r="70" fill="#eaf3de"/><path d="M270 203.68 L306.3 234.7 L296.4 234.7 L296.4 271 L243.6 271 L243.6 234.7 L233.7 234.7 Z" fill="#27500A"/><path d="M270 257.9848 C 254.754 246.8968, 257.8032 235.8088, 265.2876 240.79840000000002 C 268.614 243.016, 271.386 243.016, 274.7124 240.79840000000002 C 282.1968 235.8088, 285.246 246.8968, 270 257.9848 Z" fill="#ffffff"/><text x="270" y="366" font-family="Arial, sans-serif" font-size="32" font-weight="800" fill="#12213A" text-anchor="middle" letter-spacing="0">She's yours</text><text x="270" y="406" font-family="Arial, sans-serif" font-size="17" font-weight="normal" fill="#5f5e5a" text-anchor="middle" letter-spacing="0">Recorded Jul 21 · placed by Marikina AWG.</text><text x="34" y="478" font-family="Arial, sans-serif" font-size="20" font-weight="800" fill="#12213A" text-anchor="start" letter-spacing="0">Arrange the handover</text><rect x="34" y="498" width="472" height="104" rx="20" fill="#ffffff" filter="url(#v2sh)"/><rect x="54" y="520" width="60" height="60" rx="18.6" fill="#e7f0ef"/><rect x="68" y="534" width="32" height="32" rx="4" fill="#1C6B6B"/><rect x="73.12" y="538.48" width="4.8" height="4.8" fill="#e7f0ef"/><rect x="82.08000000000001" y="538.48" width="4.8" height="4.8" fill="#e7f0ef"/><rect x="91.04" y="538.48" width="4.8" height="4.8" fill="#e7f0ef"/><rect x="73.12" y="546.8000000000001" width="4.8" height="4.8" fill="#e7f0ef"/><rect x="82.08000000000001" y="546.8000000000001" width="4.8" height="4.8" fill="#e7f0ef"/><rect x="91.04" y="546.8000000000001" width="4.8" height="4.8" fill="#e7f0ef"/><rect x="80.8" y="555.12" width="6.4" height="10.88" fill="#e7f0ef"/><text x="134" y="542" font-family="Arial, sans-serif" font-size="19" font-weight="800" fill="#12213A" text-anchor="start" letter-spacing="0">Marikina AWG</text><circle cx="282" cy="535" r="11" fill="#1C6B6B"/><polyline points="277.05,535 280.68,538.85 287.5,530.6" fill="none" stroke="#ffffff" stroke-width="2.42" stroke-linecap="round" stroke-linejoin="round"/><text x="134" y="570" font-family="Arial, sans-serif" font-size="14.5" font-weight="normal" fill="#5f5e5a" text-anchor="start" letter-spacing="0">0917 555 0134 · Marikina City</text><rect x="34" y="624" width="229" height="64" rx="32" fill="#ffffff" filter="url(#v2sh)"/><rect x="112" y="643" width="16" height="26" rx="3" fill="none" stroke="#1C6B6B" stroke-width="2.5"/><circle cx="120" cy="664" r="1.8" fill="#1C6B6B"/><text x="150" y="664" font-family="Arial, sans-serif" font-size="18" font-weight="700" fill="#1F3A5F" text-anchor="start" letter-spacing="0">Call</text><rect x="277" y="624" width="229" height="64" rx="32" fill="#ffffff" filter="url(#v2sh)"/><path d="M330 664 c-10 -13 -10 -22 0 -22 c10 0 10 9 0 22 z" fill="#1C6B6B"/><circle cx="330" cy="648" r="4" fill="#ffffff"/><text x="356" y="664" font-family="Arial, sans-serif" font-size="17" font-weight="700" fill="#1F3A5F" text-anchor="start" letter-spacing="0">Directions</text><rect x="34" y="722" width="472" height="92" rx="18" fill="#e7f0ef"/><path d="M57 752 h18 l8 8 v24 h-26 z" fill="none" stroke="#14504F" stroke-width="2.5" stroke-linejoin="round"/><path d="M75 752 v8 h8" fill="none" stroke="#14504F" stroke-width="2.5" stroke-linejoin="round"/><line x1="64" y1="771" x2="79" y2="771" stroke="#14504F" stroke-width="2.5"/><line x1="64" y1="779" x2="79" y2="779" stroke="#14504F" stroke-width="2.5"/><text x="104" y="754" font-family="Arial, sans-serif" font-size="14.5" font-weight="700" fill="#14504F" text-anchor="start" letter-spacing="0">She's on your record now</text><text x="104" y="778" font-family="Arial, sans-serif" font-size="13.5" font-weight="normal" fill="#5f5e5a" text-anchor="start" letter-spacing="0">Name her and she joins My pets. Marikina AWG</text><text x="104" y="800" font-family="Arial, sans-serif" font-size="13.5" font-weight="normal" fill="#5f5e5a" text-anchor="start" letter-spacing="0">keeps her in their adoption history.</text><rect x="34" y="858" width="472" height="68" rx="34" fill="url(#v2btn)" filter="url(#v2soft)"/><text x="270" y="901" font-family="Arial, sans-serif" font-size="23" font-weight="700" fill="#ffffff" text-anchor="middle" letter-spacing="0">Add her details</text><text x="270" y="962" font-family="Arial, sans-serif" font-size="14" font-weight="normal" fill="#b8b6ad" text-anchor="middle" letter-spacing="0">You can do this later from My pets.</text></g></g>
    <rect x="240" y="44" width="120" height="30" rx="15" fill="#11241f"/>
  </svg>