<svg xmlns="http://www.w3.org/2000/svg" width="600" height="1230" viewBox="0 0 600 1230">
    <rect x="4" y="4" width="592" height="1222" rx="76" fill="#11241f"/>
    <rect x="30" y="30" width="540" height="1170" rx="48" fill="#ffffff"/>
    <clipPath id="sc"><rect x="30" y="30" width="540" height="1170" rx="48"/></clipPath>
    <defs>
  <filter id="v2sh" x="-30%" y="-30%" width="160%" height="160%"><feDropShadow dx="0" dy="10" stdDeviation="16" flood-color="#1F3A5F" flood-opacity="0.10"/></filter>
  <filter id="v2soft" x="-30%" y="-30%" width="160%" height="160%"><feDropShadow dx="0" dy="4" stdDeviation="7" flood-color="#1F3A5F" flood-opacity="0.08"/></filter>
  <linearGradient id="v2btn" x1="0" y1="0" x2="0" y2="1"><stop offset="0" stop-color="#238383"/><stop offset="1" stop-color="#14504F"/></linearGradient>
  <linearGradient id="v2danger" x1="0" y1="0" x2="0" y2="1"><stop offset="0" stop-color="#C94A44"/><stop offset="1" stop-color="#9E322D"/></linearGradient>
  <linearGradient id="v2hero" x1="0" y1="0" x2="1" y2="1"><stop offset="0" stop-color="#1C6B6B"/><stop offset="1" stop-color="#11241F"/></linearGradient>
  <linearGradient id="v2fade" x1="0" y1="0" x2="0" y2="1"><stop offset="0" stop-color="#F4F5F2" stop-opacity="0"/><stop offset="0.5" stop-color="#F4F5F2" stop-opacity="0.9"/><stop offset="1" stop-color="#F4F5F2"/></linearGradient>
</defs>
    <g clip-path="url(#sc)"><g transform="translate(30,30)"><rect width="540" height="1170" fill="#F4F5F2"/><text x="34" y="38" font-family="Arial, sans-serif" font-size="22" font-weight="700" fill="#1F3A5F" text-anchor="start" letter-spacing="0">9:41</text><circle cx="486" cy="32" r="5" fill="#1F3A5F"/><circle cx="502" cy="32" r="5" fill="#1F3A5F"/><rect x="470" y="22" width="40" height="18" rx="4" fill="none" stroke="#1F3A5F" stroke-width="2"/><circle cx="56" cy="66" r="22" fill="#ffffff" filter="url(#v2soft)"/><text x="56" y="76" font-family="Arial, sans-serif" font-size="30" font-weight="700" fill="#12213A" text-anchor="middle" letter-spacing="0">‹</text><text x="270" y="76" font-family="Arial, sans-serif" font-size="22" font-weight="800" fill="#12213A" text-anchor="middle" letter-spacing="0">My documents</text><text x="34" y="152" font-family="Arial, sans-serif" font-size="28" font-weight="800" fill="#12213A" text-anchor="start" letter-spacing="0">Document status</text><text x="34" y="186" font-family="Arial, sans-serif" font-size="18" font-weight="normal" fill="#5f5e5a" text-anchor="start" letter-spacing="0">Each item is reviewed on its own.</text><rect x="34" y="216" width="472" height="104" rx="24" fill="#ffffff" filter="url(#v2sh)"/><text x="112.66666666666667" y="270" font-family="Arial, sans-serif" font-size="28" font-weight="800" fill="#27500A" text-anchor="middle" letter-spacing="0">1</text><text x="112.66666666666667" y="300" font-family="Arial, sans-serif" font-size="16" font-weight="normal" fill="#5f5e5a" text-anchor="middle" letter-spacing="0">Approved</text><line x1="191.33333333333334" y1="242" x2="191.33333333333334" y2="296" stroke="#e3e1d9" stroke-width="1.5"/><text x="270" y="270" font-family="Arial, sans-serif" font-size="28" font-weight="800" fill="#14504F" text-anchor="middle" letter-spacing="0">1</text><text x="270" y="300" font-family="Arial, sans-serif" font-size="16" font-weight="normal" fill="#5f5e5a" text-anchor="middle" letter-spacing="0">In review</text><line x1="348.6666666666667" y1="242" x2="348.6666666666667" y2="296" stroke="#e3e1d9" stroke-width="1.5"/><text x="427.33333333333337" y="270" font-family="Arial, sans-serif" font-size="28" font-weight="800" fill="#5f5e5a" text-anchor="middle" letter-spacing="0">0</text><text x="427.33333333333337" y="300" font-family="Arial, sans-serif" font-size="16" font-weight="normal" fill="#5f5e5a" text-anchor="middle" letter-spacing="0">Needs a fix</text><text x="34" y="372" font-family="Arial, sans-serif" font-size="22" font-weight="800" fill="#12213A" text-anchor="start" letter-spacing="0">Still being checked</text><rect x="34" y="398" width="472" height="106" rx="20" fill="#ffffff" filter="url(#v2sh)"/><circle cx="86" cy="451" r="30" fill="#e7f0ef"/><path d="M73 435 h18 l8 8 v24 h-26 z" fill="none" stroke="#1C6B6B" stroke-width="2.5" stroke-linejoin="round"/><path d="M91 435 v8 h8" fill="none" stroke="#1C6B6B" stroke-width="2.5" stroke-linejoin="round"/><line x1="80" y1="454" x2="95" y2="454" stroke="#1C6B6B" stroke-width="2.5"/><line x1="80" y1="462" x2="95" y2="462" stroke="#1C6B6B" stroke-width="2.5"/><text x="140" y="444" font-family="Arial, sans-serif" font-size="17" font-weight="700" fill="#1F3A5F" text-anchor="start" letter-spacing="0">Government-issued ID</text><text x="140" y="472" font-family="Arial, sans-serif" font-size="15" font-weight="normal" fill="#5f5e5a" text-anchor="start" letter-spacing="0">maria-id.jpg · uploaded 9 Jul</text><rect x="382.2" y="432" width="99.8" height="38" rx="19" fill="#e7f0ef"/><text x="432.1" y="457" font-family="Arial, sans-serif" font-size="14" font-weight="700" fill="#14504F" text-anchor="middle" letter-spacing="0">In review</text><text x="34" y="548" font-family="Arial, sans-serif" font-size="22" font-weight="800" fill="#12213A" text-anchor="start" letter-spacing="0">Already approved</text><rect x="34" y="574" width="472" height="96" rx="20" fill="#ffffff" filter="url(#v2sh)"/><circle cx="86" cy="622" r="30" fill="#EAF3DE"/><polyline points="74,622 82,631 99,612" fill="none" stroke="#27500A" stroke-width="4" stroke-linecap="round" stroke-linejoin="round"/><text x="140" y="616" font-family="Arial, sans-serif" font-size="19" font-weight="800" fill="#12213A" text-anchor="start" letter-spacing="0">1 item approved</text><text x="140" y="644" font-family="Arial, sans-serif" font-size="14" font-weight="normal" fill="#5f5e5a" text-anchor="start" letter-spacing="0">Social link</text><text x="486" y="628" font-family="Arial, sans-serif" font-size="16" font-weight="700" fill="#1C6B6B" text-anchor="end" letter-spacing="0">View ›</text><rect x="34" y="714" width="472" height="88" rx="20" fill="#e7f0ef"/><circle cx="78" cy="758" r="20" fill="none" stroke="#1C6B6B" stroke-width="4"/><line x1="78" y1="758" x2="78" y2="747" stroke="#1C6B6B" stroke-width="4" stroke-linecap="round"/><line x1="78" y1="758" x2="86.4" y2="761.6" stroke="#1C6B6B" stroke-width="4" stroke-linecap="round"/><text x="116" y="750" font-family="Arial, sans-serif" font-size="18" font-weight="700" fill="#14504F" text-anchor="start" letter-spacing="0">Nothing for you to do</text><text x="116" y="778" font-family="Arial, sans-serif" font-size="15" font-weight="normal" fill="#14504F" text-anchor="start" letter-spacing="0">We'll notify you when the review is done.</text><text x="270" y="842" font-family="Arial, sans-serif" font-size="14" font-weight="normal" fill="#b8b6ad" text-anchor="middle" letter-spacing="0">Submitted 9 Jul 2026 · usually 1–2 business days</text></g></g>
    <rect x="240" y="44" width="120" height="30" rx="15" fill="#11241f"/>
  </svg>