<svg xmlns="http://www.w3.org/2000/svg" width="600" height="1230" viewBox="0 0 600 1230">
    <rect x="4" y="4" width="592" height="1222" rx="76" fill="#11241f"/>
    <rect x="30" y="30" width="540" height="1170" rx="48" fill="#ffffff"/>
    <clipPath id="sc"><rect x="30" y="30" width="540" height="1170" rx="48"/></clipPath>
    <defs>
  <filter id="v2sh" x="-30%" y="-30%" width="160%" height="160%"><feDropShadow dx="0" dy="10" stdDeviation="16" flood-color="#1F3A5F" flood-opacity="0.10"/></filter>
  <filter id="v2soft" x="-30%" y="-30%" width="160%" height="160%"><feDropShadow dx="0" dy="4" stdDeviation="7" flood-color="#1F3A5F" flood-opacity="0.08"/></filter>
  <linearGradient id="v2btn" x1="0" y1="0" x2="0" y2="1"><stop offset="0" stop-color="#238383"/><stop offset="1" stop-color="#14504F"/></linearGradient>
  <linearGradient id="v2danger" x1="0" y1="0" x2="0" y2="1"><stop offset="0" stop-color="#C94A44"/><stop offset="1" stop-color="#9E322D"/></linearGradient>
  <linearGradient id="v2hero" x1="0" y1="0" x2="1" y2="1"><stop offset="0" stop-color="#1C6B6B"/><stop offset="1" stop-color="#11241F"/></linearGradient>
  <linearGradient id="v2fade" x1="0" y1="0" x2="0" y2="1"><stop offset="0" stop-color="#F4F5F2" stop-opacity="0"/><stop offset="0.5" stop-color="#F4F5F2" stop-opacity="0.9"/><stop offset="1" stop-color="#F4F5F2"/></linearGradient>
</defs>
    <g clip-path="url(#sc)"><g transform="translate(30,30)"><rect width="540" height="1170" fill="#F4F5F2"/><text x="34" y="38" font-family="Arial, sans-serif" font-size="22" font-weight="700" fill="#1F3A5F" text-anchor="start" letter-spacing="0">9:41</text><circle cx="486" cy="32" r="5" fill="#1F3A5F"/><circle cx="502" cy="32" r="5" fill="#1F3A5F"/><rect x="470" y="22" width="40" height="18" rx="4" fill="none" stroke="#1F3A5F" stroke-width="2"/><circle cx="56" cy="66" r="22" fill="#ffffff" filter="url(#v2soft)"/><text x="56" y="76" font-family="Arial, sans-serif" font-size="30" font-weight="700" fill="#12213A" text-anchor="middle" letter-spacing="0">‹</text><text x="270" y="76" font-family="Arial, sans-serif" font-size="22" font-weight="800" fill="#12213A" text-anchor="middle" letter-spacing="0">Wishlist</text><rect x="424.5" y="44" width="81.5" height="44" rx="22" fill="url(#v2btn)" filter="url(#v2soft)"/><text x="465.25" y="73" font-family="Arial, sans-serif" font-size="16.5" font-weight="700" fill="#ffffff" text-anchor="middle" letter-spacing="0">+ New</text><text x="34" y="168" font-family="Arial, sans-serif" font-size="26" font-weight="800" fill="#12213A" text-anchor="start" letter-spacing="0">What your shelter needs</text><text x="34" y="200" font-family="Arial, sans-serif" font-size="16" font-weight="normal" fill="#5f5e5a" text-anchor="start" letter-spacing="0">Donors pledge items — you confirm delivery.</text><rect x="34" y="236" width="472" height="116" rx="20" fill="#ffffff" filter="url(#v2sh)"/><rect x="54" y="254" width="52" height="52" rx="16.12" fill="#e7f0ef"/><path d="M62 278 a18 15 0 0 0 36 0 Z" fill="#1C6B6B"/><ellipse cx="80" cy="278" rx="18" ry="5" fill="#1C6B6B"/><circle cx="74" cy="268" r="3.5" fill="#1C6B6B"/><circle cx="86" cy="269" r="3" fill="#1C6B6B"/><text x="122" y="276" font-family="Arial, sans-serif" font-size="19" font-weight="700" fill="#1F3A5F" text-anchor="start" letter-spacing="0">Dog &amp; puppy food</text><rect x="122" y="294" width="250" height="9" rx="4.5" fill="#e7e5dd"/><rect x="122" y="294" width="160" height="9" rx="4.5" fill="#1C6B6B"/><text x="122" y="326" font-family="Arial, sans-serif" font-size="14" font-weight="normal" fill="#5f5e5a" text-anchor="start" letter-spacing="0">32 / 50 kg · 3 pledges</text><rect x="406" y="252" width="80" height="36" rx="18" fill="#E4EEF0"/><circle cx="422" cy="270" r="4" fill="#1C6B6B"/><text x="434" y="275.5" font-family="Arial, sans-serif" font-size="14" font-weight="700" fill="#1C6B6B" text-anchor="start" letter-spacing="0">Open</text><rect x="352" y="310" width="134" height="30" rx="15" fill="#FAEEDA"/><text x="419" y="330" font-family="Arial, sans-serif" font-size="13" font-weight="700" fill="#633806" text-anchor="middle" letter-spacing="0">1 to confirm</text><rect x="34" y="368" width="472" height="116" rx="20" fill="#ffffff" filter="url(#v2sh)"/><rect x="54" y="386" width="52" height="52" rx="16.12" fill="#e7f0ef"/><rect x="76" y="401" width="8" height="22" rx="2" fill="#1C6B6B"/><rect x="69" y="408" width="22" height="8" rx="2" fill="#1C6B6B"/><text x="122" y="408" font-family="Arial, sans-serif" font-size="19" font-weight="700" fill="#1F3A5F" text-anchor="start" letter-spacing="0">Deworming meds</text><rect x="122" y="426" width="250" height="9" rx="4.5" fill="#e7e5dd"/><rect x="122" y="426" width="100" height="9" rx="4.5" fill="#1C6B6B"/><text x="122" y="458" font-family="Arial, sans-serif" font-size="14" font-weight="normal" fill="#5f5e5a" text-anchor="start" letter-spacing="0">8 / 20 doses · 2 pledges</text><rect x="406" y="384" width="80" height="36" rx="18" fill="#E4EEF0"/><circle cx="422" cy="402" r="4" fill="#1C6B6B"/><text x="434" y="407.5" font-family="Arial, sans-serif" font-size="14" font-weight="700" fill="#1C6B6B" text-anchor="start" letter-spacing="0">Open</text><text x="486" y="462" font-family="Arial, sans-serif" font-size="15" font-weight="700" fill="#1C6B6B" text-anchor="end" letter-spacing="0">Manage ›</text><rect x="34" y="500" width="472" height="116" rx="20" fill="#ffffff" filter="url(#v2sh)"/><rect x="54" y="518" width="52" height="52" rx="16.12" fill="#e7f0ef"/><rect x="68" y="536" width="24" height="18" rx="2.5" fill="none" stroke="#1C6B6B" stroke-width="2.6"/><line x1="68" y1="543" x2="92" y2="543" stroke="#1C6B6B" stroke-width="2.6"/><line x1="80" y1="536" x2="80" y2="543" stroke="#1C6B6B" stroke-width="2.6"/><text x="122" y="540" font-family="Arial, sans-serif" font-size="19" font-weight="700" fill="#1F3A5F" text-anchor="start" letter-spacing="0">Blankets &amp; towels</text><rect x="122" y="558" width="250" height="9" rx="4.5" fill="#e7e5dd"/><rect x="122" y="558" width="250" height="9" rx="4.5" fill="#1C6B6B"/><text x="122" y="590" font-family="Arial, sans-serif" font-size="14" font-weight="normal" fill="#5f5e5a" text-anchor="start" letter-spacing="0">15 / 15 pcs · 4 pledges</text><rect x="356" y="516" width="130" height="36" rx="18" fill="#EAF3DE"/><circle cx="372" cy="534" r="4" fill="#27500A"/><text x="384" y="539.5" font-family="Arial, sans-serif" font-size="14" font-weight="700" fill="#27500A" text-anchor="start" letter-spacing="0">Fulfilled</text><text x="486" y="594" font-family="Arial, sans-serif" font-size="15" font-weight="700" fill="#1C6B6B" text-anchor="end" letter-spacing="0">Manage ›</text><rect x="34" y="632" width="472" height="116" rx="20" fill="#ffffff" filter="url(#v2sh)"/><rect x="54" y="650" width="52" height="52" rx="16.12" fill="#e7f0ef"/><text x="80" y="684" font-family="Arial, sans-serif" font-size="26" font-weight="700" fill="#1C6B6B" text-anchor="middle" letter-spacing="0">₱</text><text x="122" y="672" font-family="Arial, sans-serif" font-size="19" font-weight="700" fill="#1F3A5F" text-anchor="start" letter-spacing="0">Vet fund</text><rect x="122" y="690" width="250" height="9" rx="4.5" fill="#e7e5dd"/><rect x="122" y="690" width="100" height="9" rx="4.5" fill="#1C6B6B"/><text x="122" y="722" font-family="Arial, sans-serif" font-size="14" font-weight="normal" fill="#5f5e5a" text-anchor="start" letter-spacing="0">4 / 10 k · 2 pledges</text><rect x="386" y="648" width="100" height="36" rx="18" fill="#ece9e1"/><circle cx="402" cy="666" r="4" fill="#6b6a63"/><text x="414" y="671.5" font-family="Arial, sans-serif" font-size="14" font-weight="700" fill="#6b6a63" text-anchor="start" letter-spacing="0">Closed</text><text x="486" y="726" font-family="Arial, sans-serif" font-size="15" font-weight="700" fill="#1C6B6B" text-anchor="end" letter-spacing="0">Manage ›</text></g></g>
    <rect x="240" y="44" width="120" height="30" rx="15" fill="#11241f"/>
  </svg>