<svg xmlns="http://www.w3.org/2000/svg" width="600" height="1230" viewBox="0 0 600 1230">
    <rect x="4" y="4" width="592" height="1222" rx="76" fill="#11241f"/>
    <rect x="30" y="30" width="540" height="1170" rx="48" fill="#ffffff"/>
    <clipPath id="sc"><rect x="30" y="30" width="540" height="1170" rx="48"/></clipPath>
    <defs>
  <filter id="v2sh" x="-30%" y="-30%" width="160%" height="160%"><feDropShadow dx="0" dy="10" stdDeviation="16" flood-color="#1F3A5F" flood-opacity="0.10"/></filter>
  <filter id="v2soft" x="-30%" y="-30%" width="160%" height="160%"><feDropShadow dx="0" dy="4" stdDeviation="7" flood-color="#1F3A5F" flood-opacity="0.08"/></filter>
  <linearGradient id="v2btn" x1="0" y1="0" x2="0" y2="1"><stop offset="0" stop-color="#238383"/><stop offset="1" stop-color="#14504F"/></linearGradient>
  <linearGradient id="v2danger" x1="0" y1="0" x2="0" y2="1"><stop offset="0" stop-color="#C94A44"/><stop offset="1" stop-color="#9E322D"/></linearGradient>
  <linearGradient id="v2hero" x1="0" y1="0" x2="1" y2="1"><stop offset="0" stop-color="#1C6B6B"/><stop offset="1" stop-color="#11241F"/></linearGradient>
  <linearGradient id="v2fade" x1="0" y1="0" x2="0" y2="1"><stop offset="0" stop-color="#F4F5F2" stop-opacity="0"/><stop offset="0.5" stop-color="#F4F5F2" stop-opacity="0.9"/><stop offset="1" stop-color="#F4F5F2"/></linearGradient>
</defs>
    <g clip-path="url(#sc)"><g transform="translate(30,30)"><rect width="540" height="1170" fill="#F4F5F2"/><text x="34" y="38" font-family="Arial, sans-serif" font-size="22" font-weight="700" fill="#1F3A5F" text-anchor="start" letter-spacing="0">9:41</text><circle cx="486" cy="32" r="5" fill="#1F3A5F"/><circle cx="502" cy="32" r="5" fill="#1F3A5F"/><rect x="470" y="22" width="40" height="18" rx="4" fill="none" stroke="#1F3A5F" stroke-width="2"/><circle cx="56" cy="66" r="22" fill="#ffffff" filter="url(#v2soft)"/><text x="56" y="76" font-family="Arial, sans-serif" font-size="30" font-weight="700" fill="#12213A" text-anchor="middle" letter-spacing="0">‹</text><text x="270" y="76" font-family="Arial, sans-serif" font-size="22" font-weight="800" fill="#12213A" text-anchor="middle" letter-spacing="0">Your location</text><rect x="34" y="146" width="472" height="66" rx="20" fill="#ffffff" filter="url(#v2soft)"/><rect x="54" y="159" width="40" height="40" rx="12.4" fill="#E2EEF0"/><path d="M74 189 c-10 -13 -10 -22 0 -22 c10 0 10 9 0 22 z" fill="#14504F"/><circle cx="74" cy="173" r="4" fill="#ffffff"/><text x="116" y="185" font-family="Arial, sans-serif" font-size="17" font-weight="800" fill="#1C6B6B" text-anchor="start" letter-spacing="0">Use my current location</text><text x="486" y="185" font-family="Arial, sans-serif" font-size="22" font-weight="normal" fill="#b8b6ad" text-anchor="end" letter-spacing="0">›</text><rect x="34" y="230" width="472" height="60" rx="30" fill="#ffffff" filter="url(#v2soft)"/><circle cx="67" cy="257" r="10" fill="none" stroke="#5f5e5a" stroke-width="3"/><line x1="74" y1="264" x2="82" y2="272" stroke="#5f5e5a" stroke-width="3.5" stroke-linecap="round"/><text x="96" y="267" font-family="Arial, sans-serif" font-size="16" font-weight="normal" fill="#9a988f" text-anchor="start" letter-spacing="0">Search city or barangay</text><text x="34" y="344" font-family="Arial, sans-serif" font-size="12.5" font-weight="800" fill="#a9adaa" text-anchor="start" letter-spacing="1">METRO MANILA</text><rect x="34" y="362" width="472" height="404" rx="22" fill="#ffffff" filter="url(#v2sh)"/><path d="M70 406 c-10 -13 -10 -22 0 -22 c10 0 10 9 0 22 z" fill="#1C6B6B"/><circle cx="70" cy="390" r="4" fill="#ffffff"/><text x="104" y="402" font-family="Arial, sans-serif" font-size="17" font-weight="800" fill="#12213A" text-anchor="start" letter-spacing="0">Marikina City</text><circle cx="474" cy="394" r="14" fill="url(#v2btn)"/><polyline points="468,394 472,398 480,389" fill="none" stroke="#ffffff" stroke-width="2.6" stroke-linecap="round" stroke-linejoin="round"/><line x1="70" y1="435" x2="472" y2="435" stroke="#e3e1d9" stroke-width="1.5"/><path d="M70 472 c-10 -13 -10 -22 0 -22 c10 0 10 9 0 22 z" fill="#c9cec7"/><circle cx="70" cy="456" r="4" fill="#ffffff"/><text x="104" y="468" font-family="Arial, sans-serif" font-size="17" font-weight="600" fill="#1F3A5F" text-anchor="start" letter-spacing="0">Quezon City</text><circle cx="474" cy="460" r="13" fill="none" stroke="#d4d8d2" stroke-width="2"/><line x1="70" y1="501" x2="472" y2="501" stroke="#e3e1d9" stroke-width="1.5"/><path d="M70 538 c-10 -13 -10 -22 0 -22 c10 0 10 9 0 22 z" fill="#c9cec7"/><circle cx="70" cy="522" r="4" fill="#ffffff"/><text x="104" y="534" font-family="Arial, sans-serif" font-size="17" font-weight="600" fill="#1F3A5F" text-anchor="start" letter-spacing="0">Manila</text><circle cx="474" cy="526" r="13" fill="none" stroke="#d4d8d2" stroke-width="2"/><line x1="70" y1="567" x2="472" y2="567" stroke="#e3e1d9" stroke-width="1.5"/><path d="M70 604 c-10 -13 -10 -22 0 -22 c10 0 10 9 0 22 z" fill="#c9cec7"/><circle cx="70" cy="588" r="4" fill="#ffffff"/><text x="104" y="600" font-family="Arial, sans-serif" font-size="17" font-weight="600" fill="#1F3A5F" text-anchor="start" letter-spacing="0">Pasig City</text><circle cx="474" cy="592" r="13" fill="none" stroke="#d4d8d2" stroke-width="2"/><line x1="70" y1="633" x2="472" y2="633" stroke="#e3e1d9" stroke-width="1.5"/><path d="M70 670 c-10 -13 -10 -22 0 -22 c10 0 10 9 0 22 z" fill="#c9cec7"/><circle cx="70" cy="654" r="4" fill="#ffffff"/><text x="104" y="666" font-family="Arial, sans-serif" font-size="17" font-weight="600" fill="#1F3A5F" text-anchor="start" letter-spacing="0">Mandaluyong</text><circle cx="474" cy="658" r="13" fill="none" stroke="#d4d8d2" stroke-width="2"/><line x1="70" y1="699" x2="472" y2="699" stroke="#e3e1d9" stroke-width="1.5"/><path d="M70 736 c-10 -13 -10 -22 0 -22 c10 0 10 9 0 22 z" fill="#c9cec7"/><circle cx="70" cy="720" r="4" fill="#ffffff"/><text x="104" y="732" font-family="Arial, sans-serif" font-size="17" font-weight="600" fill="#1F3A5F" text-anchor="start" letter-spacing="0">Makati</text><circle cx="474" cy="724" r="13" fill="none" stroke="#d4d8d2" stroke-width="2"/><text x="270" y="820" font-family="Arial, sans-serif" font-size="13" font-weight="normal" fill="#a9adaa" text-anchor="middle" letter-spacing="0">Only your city is saved — used to show what's near you.</text></g></g>
    <rect x="240" y="44" width="120" height="30" rx="15" fill="#11241f"/>
  </svg>